<svg width="100" height="100" viewBox="0 0 100 100" fill="none" xmlns="http://www.w3.org/2000/svg">
<path d="M85 71C88.3137 71 91 68.3137 91 65C91 61.6863 88.3137 59 85 59C84.8316 59 84.6649 59.0069 84.5 59.0205C81.4202 59.2746 79 61.8547 79 65C79 66.2267 79.3682 67.3675 80 68.3178C80.9882 69.8041 82.6214 70.8245 84.5 70.9795C84.6649 70.9931 84.8316 71 85 71Z" fill="#869E93"/>
<path d="M22.9733 67.5198C22.991 67.349 23 67.1755 23 67C23 66.0893 22.7565 65.2354 22.3311 64.5C21.4666 63.0055 19.8507 62 18 62C16.0209 62 14.3104 63.1499 13.5 64.8179C13.1797 65.4772 13.0001 66.2175 13 66.9996C11.7856 67.9118 11 69.3642 11 71C11 72.8507 12.0055 74.4666 13.5 75.3311C14.2354 75.7565 15.0893 76 16 76C16.7111 76 17.3875 75.8516 18 75.584C18.5181 75.3576 18.9904 75.046 19.3992 74.6668C19.8894 74.8811 20.4308 75 21 75C23.2091 75 25 73.2091 25 71C25 70.2969 24.8186 69.6361 24.5 69.062C24.1428 68.4182 23.6131 67.8834 22.9733 67.5198Z" fill="#869E93"/>
<path d="M7 81C6.44772 81 6 81.4477 6 82C6 82.5523 6.44772 83 7 83V81ZM93.5 83C94.0523 83 94.5 82.5523 94.5 82C94.5 81.4477 94.0523 81 93.5 81V83ZM79 65.5C79.5523 65.5 80 65.0523 80 64.5C80 63.9477 79.5523 63.5 79 63.5V65.5ZM22.9733 67.5198L21.9786 67.4171L21.9115 68.0666L22.4793 68.3893L22.9733 67.5198ZM19.3992 74.6668L19.7998 73.7505L19.1995 73.4881L18.7192 73.9336L19.3992 74.6668ZM16 71C16.5523 71 17 70.5523 17 70C17 69.4477 16.5523 69 16 69V71ZM19 73C19 72.4477 18.5523 72 18 72C17.4477 72 17 72.4477 17 73H19ZM86 67.5C86 66.9477 85.5523 66.5 85 66.5C84.4477 66.5 84 66.9477 84 67.5H86ZM80 68.3178L80.8327 67.7641L80 68.3178ZM84.5 59.0205L84.5822 60.0172L84.5 59.0205ZM13.5 64.8179L14.3995 65.2549L13.5 64.8179ZM13.5 68.494L14.3357 67.9448L13.5 68.494ZM13.5 75.3311L14.0007 74.4655L13.5 75.3311ZM22.3311 64.5L21.4655 65.0007L22.3311 64.5ZM39 37.5V82H41V37.5H39ZM17.5 34.5H28.5V32.5H17.5V34.5ZM29.5 33.5V21H27.5V33.5H29.5ZM32.5 18H70.5V16H32.5V18ZM54 82V50.5H52V82H54ZM7 83H93.5V81H7V83ZM57 47.5H74.5V45.5H57V47.5ZM74.5 47.5H80.5V45.5H74.5V47.5ZM73.5 21V46.5H75.5V21H73.5ZM18.5 38.5H23.5V36.5H18.5V38.5ZM23.5 38.5V45H25.5V38.5H23.5ZM23.5 45H18.5V47H23.5V45ZM18.5 45V38.5H16.5V45H18.5ZM18.5 52H23.5V50H18.5V52ZM23.5 52V58.5H25.5V52H23.5ZM23.5 58.5H18.5V60.5H23.5V58.5ZM18.5 58.5V52H16.5V58.5H18.5ZM34 22H38V20H34V22ZM38 22V28.5H40V22H38ZM38 28.5H34V30.5H38V28.5ZM34 28.5V22H32V28.5H34ZM44.5 22H48.5V20H44.5V22ZM48.5 22V28.5H50.5V22H48.5ZM48.5 28.5H44.5V30.5H48.5V28.5ZM44.5 28.5V22H42.5V28.5H44.5ZM55 22H59V20H55V22ZM59 22V28.5H61V22H59ZM59 28.5H55V30.5H59V28.5ZM55 28.5V22H53V28.5H55ZM65.5 22H69.5V20H65.5V22ZM69.5 22V28.5H71.5V22H69.5ZM69.5 28.5H65.5V30.5H69.5V28.5ZM65.5 28.5V22H63.5V28.5H65.5ZM44.5 34.5H48.5V32.5H44.5V34.5ZM48.5 34.5V41H50.5V34.5H48.5ZM48.5 41H44.5V43H48.5V41ZM44.5 41V34.5H42.5V41H44.5ZM55 34.5H59V32.5H55V34.5ZM59 34.5V41H61V34.5H59ZM59 41H55V43H59V41ZM55 41V34.5H53V41H55ZM65.5 34.5H69.5V32.5H65.5V34.5ZM69.5 34.5V41H71.5V34.5H69.5ZM69.5 41H65.5V43H69.5V41ZM65.5 41V34.5H63.5V41H65.5ZM44.5 47.5H48.5V45.5H44.5V47.5ZM48.5 47.5V54H50.5V47.5H48.5ZM48.5 54H44.5V56H48.5V54ZM44.5 54V47.5H42.5V54H44.5ZM44.5 60.5H48.5V58.5H44.5V60.5ZM48.5 60.5V67H50.5V60.5H48.5ZM48.5 67H44.5V69H48.5V67ZM44.5 67V60.5H42.5V67H44.5ZM72 52H79V50H72V52ZM79 52V58.5H81V52H79ZM79 58.5H72V60.5H79V58.5ZM72 58.5V52H70V58.5H72ZM72 65.5H79V63.5H72V65.5ZM79 72H72V74H79V72ZM72 72V65.5H70V72H72ZM58 52H65V50H58V52ZM65 52V58.5H67V52H65ZM65 58.5H58V60.5H65V58.5ZM58 58.5V52H56V58.5H58ZM58 65.5H65V63.5H58V65.5ZM65 65.5V72H67V65.5H65ZM65 72H58V74H65V72ZM58 72V65.5H56V72H58ZM30 38.5H35V36.5H30V38.5ZM35 38.5V45H37V38.5H35ZM35 45H30V47H35V45ZM30 45V38.5H28V45H30ZM30 52H35V50H30V52ZM35 52V58.5H37V52H35ZM35 58.5H30V60.5H35V58.5ZM30 58.5V52H28V58.5H30ZM30 65.5H35V63.5H30V65.5ZM35 65.5V72H37V65.5H35ZM35 72H30V74H35V72ZM30 72V65.5H28V72H30ZM14.5 83H40V81H14.5V83ZM40 83H53V81H40V83ZM53 83H83.5V81H53V83ZM30 72H28C28 73.1046 28.8954 74 30 74V72ZM35 72V74C36.1046 74 37 73.1046 37 72H35ZM35 65.5H37C37 64.3954 36.1046 63.5 35 63.5V65.5ZM30 63.5C28.8954 63.5 28 64.3954 28 65.5H30V63.5ZM30 58.5H28C28 59.6046 28.8954 60.5 30 60.5V58.5ZM35 58.5V60.5C36.1046 60.5 37 59.6046 37 58.5H35ZM35 52H37C37 50.8954 36.1046 50 35 50V52ZM30 50C28.8954 50 28 50.8954 28 52H30V50ZM30 45H28C28 46.1046 28.8954 47 30 47V45ZM35 45V47C36.1046 47 37 46.1046 37 45H35ZM35 38.5H37C37 37.3954 36.1046 36.5 35 36.5V38.5ZM30 36.5C28.8954 36.5 28 37.3954 28 38.5H30V36.5ZM58 72H56C56 73.1046 56.8954 74 58 74V72ZM65 72V74C66.1046 74 67 73.1046 67 72H65ZM65 65.5H67C67 64.3954 66.1046 63.5 65 63.5V65.5ZM58 63.5C56.8954 63.5 56 64.3954 56 65.5H58V63.5ZM58 58.5H56C56 59.6046 56.8954 60.5 58 60.5V58.5ZM65 58.5V60.5C66.1046 60.5 67 59.6046 67 58.5H65ZM65 52H67C67 50.8954 66.1046 50 65 50V52ZM58 50C56.8954 50 56 50.8954 56 52H58V50ZM72 72H70C70 73.1046 70.8954 74 72 74V72ZM79 72V74C80.1046 74 81 73.1046 81 72H79ZM72 63.5C70.8954 63.5 70 64.3954 70 65.5H72V63.5ZM72 58.5H70C70 59.6046 70.8954 60.5 72 60.5V58.5ZM79 58.5V60.5C80.1046 60.5 81 59.6046 81 58.5H79ZM79 52H81C81 50.8954 80.1046 50 79 50V52ZM72 50C70.8954 50 70 50.8954 70 52H72V50ZM44.5 67H42.5C42.5 68.1046 43.3954 69 44.5 69V67ZM48.5 67V69C49.6046 69 50.5 68.1046 50.5 67H48.5ZM48.5 60.5H50.5C50.5 59.3954 49.6046 58.5 48.5 58.5V60.5ZM44.5 58.5C43.3954 58.5 42.5 59.3954 42.5 60.5H44.5V58.5ZM44.5 54H42.5C42.5 55.1046 43.3954 56 44.5 56V54ZM48.5 54V56C49.6046 56 50.5 55.1046 50.5 54H48.5ZM48.5 47.5H50.5C50.5 46.3954 49.6046 45.5 48.5 45.5V47.5ZM44.5 45.5C43.3954 45.5 42.5 46.3954 42.5 47.5H44.5V45.5ZM65.5 41H63.5C63.5 42.1046 64.3954 43 65.5 43V41ZM69.5 34.5H71.5C71.5 33.3954 70.6046 32.5 69.5 32.5V34.5ZM65.5 32.5C64.3954 32.5 63.5 33.3954 63.5 34.5H65.5V32.5ZM55 32.5C53.8954 32.5 53 33.3954 53 34.5H55V32.5ZM44.5 41H42.5C42.5 42.1046 43.3954 43 44.5 43V41ZM48.5 41V43C49.6046 43 50.5 42.1046 50.5 41H48.5ZM48.5 34.5H50.5C50.5 33.3954 49.6046 32.5 48.5 32.5V34.5ZM44.5 32.5C43.3954 32.5 42.5 33.3954 42.5 34.5H44.5V32.5ZM65.5 28.5H63.5C63.5 29.6046 64.3954 30.5 65.5 30.5V28.5ZM69.5 28.5V30.5C70.6046 30.5 71.5 29.6046 71.5 28.5H69.5ZM69.5 22H71.5C71.5 20.8954 70.6046 20 69.5 20V22ZM65.5 20C64.3954 20 63.5 20.8954 63.5 22H65.5V20ZM55 28.5H53C53 29.6046 53.8954 30.5 55 30.5V28.5ZM59 28.5V30.5C60.1046 30.5 61 29.6046 61 28.5H59ZM59 22H61C61 20.8954 60.1046 20 59 20V22ZM55 20C53.8954 20 53 20.8954 53 22H55V20ZM44.5 28.5H42.5C42.5 29.6046 43.3954 30.5 44.5 30.5V28.5ZM48.5 28.5V30.5C49.6046 30.5 50.5 29.6046 50.5 28.5H48.5ZM48.5 22H50.5C50.5 20.8954 49.6046 20 48.5 20V22ZM44.5 20C43.3954 20 42.5 20.8954 42.5 22H44.5V20ZM34 28.5H32C32 29.6046 32.8954 30.5 34 30.5V28.5ZM38 22H40C40 20.8954 39.1046 20 38 20V22ZM34 20C32.8954 20 32 20.8954 32 22H34V20ZM18.5 58.5H16.5C16.5 59.6046 17.3954 60.5 18.5 60.5V58.5ZM23.5 58.5V60.5C24.6046 60.5 25.5 59.6046 25.5 58.5H23.5ZM23.5 52H25.5C25.5 50.8954 24.6046 50 23.5 50V52ZM18.5 50C17.3954 50 16.5 50.8954 16.5 52H18.5V50ZM18.5 45H16.5C16.5 46.1046 17.3954 47 18.5 47V45ZM23.5 38.5H25.5C25.5 37.3954 24.6046 36.5 23.5 36.5V38.5ZM18.5 36.5C17.3954 36.5 16.5 37.3954 16.5 38.5H18.5V36.5ZM83.5 81V83C84.6046 83 85.5 82.1046 85.5 81H83.5ZM85.5 50.5C85.5 47.7386 83.2614 45.5 80.5 45.5V47.5C82.1569 47.5 83.5 48.8431 83.5 50.5H85.5ZM54 50.5C54 48.8431 55.3431 47.5 57 47.5V45.5C54.2386 45.5 52 47.7386 52 50.5H54ZM55 41H53C53 42.1046 53.8954 43 55 43V41ZM41 37.5C41 34.7386 38.7614 32.5 36 32.5V34.5C37.6569 34.5 39 35.8431 39 37.5H41ZM70.5 18C72.1569 18 73.5 19.3431 73.5 21H75.5C75.5 18.2386 73.2614 16 70.5 16V18ZM59 41V43C60.1046 43 61 42.1046 61 41H59ZM14.5 37.5C14.5 35.8431 15.8431 34.5 17.5 34.5V32.5C14.7386 32.5 12.5 34.7386 12.5 37.5H14.5ZM23.5 45V47C24.6046 47 25.5 46.1046 25.5 45H23.5ZM38 28.5V30.5C39.1046 30.5 40 29.6046 40 28.5H38ZM69.5 41V43C70.6046 43 71.5 42.1046 71.5 41H69.5ZM29.5 21C29.5 19.3431 30.8431 18 32.5 18V16C29.7386 16 27.5 18.2386 27.5 21H29.5ZM23.5 65.5H25.5C25.5 64.3954 24.6046 63.5 23.5 63.5V65.5ZM59 34.5H61C61 33.3954 60.1046 32.5 59 32.5V34.5ZM12.5 81C12.5 82.1046 13.3954 83 14.5 83V81H12.5ZM23.968 67.6226C23.9892 67.4176 24 67.2099 24 67H22C22 67.1412 21.9927 67.2803 21.9786 67.4171L23.968 67.6226ZM21 76C23.7614 76 26 73.7614 26 71H24C24 72.6569 22.6569 74 21 74V76ZM18.9986 75.5831C19.6127 75.8516 20.2904 76 21 76V74C20.5713 74 20.166 73.9107 19.7998 73.7505L18.9986 75.5831ZM12 71C12 69.692 12.6268 68.5307 13.6006 67.7992L12.3994 66.2001C10.9443 67.293 10 69.0364 10 71H12ZM16 77C16.8515 77 17.664 76.822 18.4004 76.5003L17.5996 74.6676C17.111 74.8811 16.5707 75 16 75V77ZM18.4004 76.5003C19.0227 76.2284 19.5893 75.8544 20.0792 75.4L18.7192 73.9336C18.3916 74.2375 18.0135 74.4868 17.5996 74.6676L18.4004 76.5003ZM17 73V75.584H19V73H17ZM17 75.584V82.5H19V75.584H17ZM90 65C90 67.7614 87.7614 70 85 70V72C88.866 72 92 68.866 92 65H90ZM85 60C87.7614 60 90 62.2386 90 65H92C92 61.134 88.866 58 85 58V60ZM84 67.5V82.5H86V67.5H84ZM28.5 34.5H36V32.5H28.5V34.5ZM80.8327 67.7641C80.3066 66.9728 80 66.0237 80 65H78C78 66.4298 78.4297 67.7622 79.1673 68.8715L80.8327 67.7641ZM79 68.3178V72H81V68.3178H79ZM80 65C80 62.3794 82.0168 60.2288 84.5822 60.0172L84.4178 58.0239C80.8237 58.3204 78 61.3299 78 65H80ZM84.5822 60.0172C84.7198 60.0058 84.8591 60 85 60V58C84.8041 58 84.61 58.0081 84.4178 58.0239L84.5822 60.0172ZM83.5 50.5V59.0205H85.5V50.5H83.5ZM83.5 70.9795V81H85.5V70.9795H83.5ZM85 70C84.8591 70 84.7198 69.9942 84.5822 69.9828L84.4178 71.9761C84.61 71.9919 84.8041 72 85 72V70ZM84.5822 69.9828C83.0194 69.8539 81.6578 69.0051 80.8327 67.7641L79.1673 68.8715C80.3186 70.603 82.2234 71.795 84.4178 71.9761L84.5822 69.9828ZM18 61C15.6236 61 13.5718 62.3816 12.6005 64.381L14.3995 65.2549C15.0489 63.9181 16.4182 63 18 63V61ZM12.6005 64.381C12.2155 65.1734 12.0001 66.0628 12 66.9996L14 66.9997C14 66.3721 14.1439 65.781 14.3995 65.2549L12.6005 64.381ZM14.5 64.8179V37.5H12.5V64.8179H14.5ZM12 66.9996C12 67.728 12.2723 68.4466 12.6643 69.0431L14.3357 67.9448C14.0998 67.5857 14 67.2435 14 66.9996H12ZM12.6643 69.0431C13.3341 70.0625 14.5468 71 16 71V69C15.4197 69 14.7605 68.5913 14.3357 67.9448L12.6643 69.0431ZM14.5 81V75.3311H12.5V81H14.5ZM16 75C15.2698 75 14.5881 74.8052 14.0007 74.4655L12.9993 76.1967C13.8828 76.7078 14.9088 77 16 77V75ZM14.0007 74.4655C12.8025 73.7724 12 72.4793 12 71H10C10 73.2221 11.2085 75.1608 12.9993 76.1967L14.0007 74.4655ZM24 67C24 65.9088 23.7078 64.8828 23.1967 63.9993L21.4655 65.0007C21.8052 65.5881 22 66.2698 22 67H24ZM23.1967 63.9993C22.1608 62.2085 20.2221 61 18 61V63C19.4793 63 20.7724 63.8025 21.4655 65.0007L23.1967 63.9993ZM22.3311 65.5H23.5V63.5H22.3311V65.5ZM23.5 65.5V68.75H25.5V65.5H23.5ZM23.5 68.75V69.062H25.5V68.75H23.5ZM26 71C26 70.1228 25.7732 69.2956 25.3744 68.5768L23.6256 69.5472C23.8639 69.9767 24 70.4709 24 71H26ZM25.3744 68.5768C24.928 67.7723 24.2667 67.1046 23.4673 66.6504L22.4793 68.3893C22.9595 68.6621 23.3575 69.0641 23.6256 69.5472L25.3744 68.5768Z" fill="black"/>
</svg>
