<svg width="100" height="100" viewBox="0 0 100 100" fill="none" xmlns="http://www.w3.org/2000/svg">
<path d="M90.5 86C94.2305 86 94 82.6421 94 78.5C94 75.0098 92.8874 72.0764 91.3808 71.2395C91.0994 71.0832 90.8042 71 90.5 71C90.309 71 90.1215 71.0328 89.9388 71.0959C88.2726 71.6714 87 74.7672 87 78.5C87 79.0057 87 79.4998 87.0064 79.9774C87.0202 81.0112 87.0638 81.9682 87.2018 82.8011C87.5224 84.7355 88.3521 86 90.5 86Z" fill="#869E93"/>
<path d="M88.5 68C86.567 68 85 71.3579 85 75.5C85 77.1002 85 78.5834 85.2018 79.8011C85.4476 81.2842 85.9927 82.3736 87.2018 82.8011C87.0638 81.9682 87.0202 81.0112 87.0064 79.9774C87 79.4998 87 79.0057 87 78.5C87 74.7672 88.2726 71.6714 89.9388 71.0959C90.1215 71.0328 90.309 71 90.5 71C90.8042 71 91.0994 71.0832 91.3808 71.2395C90.9101 69.7808 90.2043 68.697 89.3808 68.2395C89.0994 68.0832 88.8042 68 88.5 68Z" fill="#869E93"/>
<path d="M86.5 65C86.1525 65 85.8169 65.1085 85.5 65.3106C84.0543 66.2326 83 69.1025 83 72.5C83 73.3766 83 74.2181 83.0332 75C83.1343 77.384 83.5438 79.2149 85.2018 79.8011C85 78.5834 85 77.1002 85 75.5C85 71.3579 86.567 68 88.5 68C88.8042 68 89.0994 68.0832 89.3808 68.2395C88.7493 66.2823 87.6945 65 86.5 65Z" fill="#869E93"/>
<path d="M14.5028 86C10.7723 86 11.0028 82.6421 11.0028 78.5C11.0028 77.2359 11.1487 76.0449 11.4065 75C11.8604 73.16 12.661 71.7733 13.622 71.2395C13.9034 71.0832 14.1986 71 14.5028 71C14.6938 71 14.8813 71.0328 15.064 71.0959C16.7302 71.6714 18.0028 74.7672 18.0028 78.5C18.0028 79.0057 18.0028 79.4998 17.9964 79.9774C17.9826 81.0112 17.939 81.9682 17.801 82.8011C17.4804 84.7355 16.6506 86 14.5028 86Z" fill="#869E93"/>
<path d="M16.5028 68C18.4358 68 20.0028 71.3579 20.0028 75.5C20.0028 77.1002 20.0028 78.5834 19.801 79.8011C19.5552 81.2842 19.0101 82.3736 17.801 82.8011C17.939 81.9682 17.9826 81.0112 17.9964 79.9774C18.0028 79.4998 18.0028 79.0057 18.0028 78.5C18.0028 74.7672 16.7302 71.6714 15.064 71.0959C14.8813 71.0328 14.6938 71 14.5028 71C14.1986 71 13.9034 71.0832 13.622 71.2395C14.0927 69.7808 14.7984 68.697 15.622 68.2395C15.9034 68.0832 16.1986 68 16.5028 68Z" fill="#869E93"/>
<path d="M18.5028 65C18.565 65 18.6269 65.0035 18.6883 65.0104C20.535 65.217 22.0028 68.4912 22.0028 72.5C22.0028 73.3766 22.0028 74.2181 21.9696 75C21.8685 77.384 21.459 79.2149 19.801 79.8011C20.0028 78.5834 20.0028 77.1002 20.0028 75.5C20.0028 71.3579 18.4358 68 16.5028 68C16.1986 68 15.9034 68.0832 15.622 68.2395C16.2535 66.2823 17.3083 65 18.5028 65Z" fill="#869E93"/>
<path d="M7 74C6.44772 74 6 74.4477 6 75C6 75.5523 6.44772 76 7 76V74ZM59.5617 84.8457C59.7526 85.3639 60.3275 85.6293 60.8457 85.4383C61.3639 85.2474 61.6293 84.6725 61.4383 84.1543L59.5617 84.8457ZM45 75V74H44.3027L44.0617 74.6543L45 75ZM40.5617 84.1543C40.3707 84.6725 40.6361 85.2474 41.1543 85.4383C41.6725 85.6293 42.2474 85.3639 42.4383 84.8457L40.5617 84.1543ZM13 53.5H12V54.5H13V53.5ZM13 48L12.0745 47.6214L12 47.8034V48H13ZM89.5 48H90.5V47.8661L90.4648 47.7369L89.5 48ZM89.5 53.5V54.5H90.5V53.5H89.5ZM27 29.5L26.2548 28.8332L26 29.1179V29.5H27ZM43.5 29.5H44.5V29.135L44.2649 28.8559L43.5 29.5ZM59.5 29.5L58.7548 28.8332L58.5 29.1179V29.5H59.5ZM76 29.5H77V29.135L76.7649 28.8559L76 29.5ZM66 57.5C65.4477 57.5 65 57.9477 65 58.5C65 59.0523 65.4477 59.5 66 59.5V57.5ZM73.5 59.5C74.0523 59.5 74.5 59.0523 74.5 58.5C74.5 57.9477 74.0523 57.5 73.5 57.5V59.5ZM40.5526 26L39.7877 26.6441L39.7877 26.6441L40.5526 26ZM62.6316 26L63.3768 26.6668L63.3768 26.6668L62.6316 26ZM39.5 37.5V38.5H40.5V37.5H39.5ZM31 37.5H30V38.5H31V37.5ZM72.25 37.5V38.5H73.25V37.5H72.25ZM63.75 37.5H62.75V38.5H63.75V37.5ZM33.9637 21.717L33.2185 21.0502L33.2185 21.0502L33.9637 21.717ZM36.9841 21.7623L37.749 21.1182L37.749 21.1182L36.9841 21.7623ZM21.4916 27.2427L22.4172 27.6214L21.4916 27.2427ZM66.4637 21.717L65.7185 21.0502L65.7185 21.0502L66.4637 21.717ZM69.4841 21.7623L70.249 21.1182L70.249 21.1182L69.4841 21.7623ZM83.9019 27.4738L84.8667 27.2107L84.8667 27.2107L83.9019 27.4738ZM85.2018 79.8011L86.1883 79.6376L85.2018 79.8011ZM87.2018 82.8011L88.1883 82.6376L87.2018 82.8011ZM89.9388 71.0959L90.2652 72.0411L89.9388 71.0959ZM87.0064 79.9774L88.0063 79.9641L87.0064 79.9774ZM13.622 71.2395L14.1076 72.1137L13.622 71.2395ZM19.801 79.8011L18.8144 79.6376L19.801 79.8011ZM17.801 82.8011L16.8144 82.6376L17.801 82.8011ZM15.064 71.0959L14.7376 72.0411L15.064 71.0959ZM17.9964 79.9774L16.9965 79.9641L17.9964 79.9774ZM18.6883 65.0104L18.5771 66.0042L18.6883 65.0104ZM11.4065 75L12.3774 75.2395L12.3774 75.2395L11.4065 75ZM83.0332 75L84.0323 74.9576L83.0332 75ZM56.0617 75.3457L59.5617 84.8457L61.4383 84.1543L57.9383 74.6543L56.0617 75.3457ZM45 76H57V74H45V76ZM44.0617 74.6543L40.5617 84.1543L42.4383 84.8457L45.9383 75.3457L44.0617 74.6543ZM18.6883 52.5H13V54.5H18.6883V52.5ZM14 53.5V48H12V53.5H14ZM13 49H89.5V47H13V49ZM88.5 48V53.5H90.5V48H88.5ZM89.5 52.5H85.5V54.5H89.5V52.5ZM13.9255 48.3786L22.4172 27.6214L20.5661 26.8641L12.0745 47.6214L13.9255 48.3786ZM82.9372 27.7369L88.5352 48.2631L90.4648 47.7369L84.8667 27.2107L82.9372 27.7369ZM28 41.5V29.5H26V41.5H28ZM42.5 29.5V41.5H44.5V29.5H42.5ZM43.5 40.5H23.5V42.5H43.5V40.5ZM43.5 42.5H46.5V40.5H43.5V42.5ZM60.5 41.5V29.5H58.5V41.5H60.5ZM75 29.5V41.5H77V29.5H75ZM76 40.5H59.5V42.5H76V40.5ZM59.5 40.5H56V42.5H59.5V40.5ZM76 42.5H79V40.5H76V42.5ZM18.6883 54.5H25V52.5H18.6883V54.5ZM24 53.5V67.5H26V53.5H24ZM43 67.5V53.5H41V67.5H43ZM25 54.5H33.5V52.5H25V54.5ZM33.5 54.5H42V52.5H33.5V54.5ZM26 69.5H33.5V67.5H26V69.5ZM33.5 69.5H41V67.5H33.5V69.5ZM32.5 53.5V68.5H34.5V53.5H32.5ZM47 63V75H49V63H47ZM49 63H54V61H49V63ZM48 76H55V74H48V76ZM55 76H57V74H55V76ZM55 74H45V76H55V74ZM54 63V75H56V63H54ZM42 54.5H60.5V52.5H42V54.5ZM57 76H60.5V74H57V76ZM59.5 53.5V75H61.5V53.5H59.5ZM60.5 54.5H79V52.5H60.5V54.5ZM79 54.5H85.5V52.5H79V54.5ZM60.5 76H79V74H60.5V76ZM78 53.5V75H80V53.5H78ZM66 59.5H73.5V57.5H66V59.5ZM27.7452 30.1668L30.8768 26.6668L29.3863 25.3332L26.2548 28.8332L27.7452 30.1668ZM30.8768 26.6668L34.709 22.3838L33.2185 21.0502L29.3863 25.3332L30.8768 26.6668ZM23.3427 27H30.1316V25H23.3427V27ZM36.2191 22.4065L39.7877 26.6441L41.3175 25.3559L37.749 21.1182L36.2191 22.4065ZM39.7877 26.6441L42.7351 30.1441L44.2649 28.8559L41.3175 25.3559L39.7877 26.6441ZM40.5526 27H62.6316V25H40.5526V27ZM60.2452 30.1668L63.3768 26.6668L61.8863 25.3332L58.7548 28.8332L60.2452 30.1668ZM63.3768 26.6668L67.209 22.3838L65.7185 21.0502L61.8863 25.3332L63.3768 26.6668ZM73.0526 27H81.9724V25H73.0526V27ZM68.7191 22.4064L72.2877 26.6441L73.8175 25.3559L70.249 21.1182L68.7191 22.4064ZM72.2877 26.6441L75.2351 30.1441L76.7649 28.8559L73.8175 25.3559L72.2877 26.6441ZM38.5 31V37.5H40.5V31H38.5ZM32 37.5V31H30V37.5H32ZM32 31H35.25V29H32V31ZM35.25 31H38.5V29H35.25V31ZM39.5 36.5H35.25V38.5H39.5V36.5ZM35.25 36.5H31V38.5H35.25V36.5ZM34.25 30V37.5H36.25V30H34.25ZM71.25 31V37.5H73.25V31H71.25ZM64.75 37.5V31H62.75V37.5H64.75ZM64.75 31H68V29H64.75V31ZM68 31H71.25V29H68V31ZM72.25 36.5H68V38.5H72.25V36.5ZM68 36.5H63.75V38.5H68V36.5ZM67 30V37.5H69V30H67ZM73.25 31C73.25 29.8954 72.3546 29 71.25 29V31H73.25ZM64.75 31V29C63.6454 29 62.75 29.8954 62.75 31H64.75ZM32 31V29C30.8954 29 30 29.8954 30 31H32ZM54 63H56C56 61.8954 55.1046 61 54 61V63ZM41 67.5V69.5C42.1046 69.5 43 68.6046 43 67.5H41ZM24 67.5C24 68.6046 24.8954 69.5 26 69.5V67.5H24ZM40.5 31C40.5 29.8954 39.6046 29 38.5 29V31V31H40.5ZM34.709 22.3838C35.1145 21.9305 35.8274 21.9412 36.2191 22.4065L37.749 21.1182C36.5737 19.7225 34.4351 19.6905 33.2185 21.0502L34.709 22.3838ZM49 63V61C47.8954 61 47 61.8954 47 63H49ZM22.4172 27.6214C22.5709 27.2455 22.9366 27 23.3427 27V25C22.1245 25 21.0273 25.7366 20.5661 26.8641L22.4172 27.6214ZM67.209 22.3838C67.6145 21.9305 68.3274 21.9412 68.7191 22.4064L70.249 21.1182C69.0737 19.7225 66.9351 19.6905 65.7185 21.0502L67.209 22.3838ZM84.8667 27.2107C84.5107 25.9055 83.3253 25 81.9724 25V27C82.4234 27 82.8185 27.3018 82.9372 27.7369L84.8667 27.2107ZM86 75.5C86 73.5414 86.3725 71.8169 86.9313 70.6196C87.528 69.341 88.1528 69 88.5 69V67C86.9142 67 85.789 68.3379 85.1189 69.7738C84.411 71.2909 84 73.3165 84 75.5H86ZM93 78.5C93 79.5575 93.0141 80.5083 92.9786 81.3785C92.943 82.2486 92.8593 82.9573 92.6914 83.515C92.5268 84.0615 92.3007 84.3993 92.0184 84.6124C91.7366 84.8249 91.2839 85 90.5 85V87C91.5814 87 92.4987 86.7554 93.223 86.2089C93.9466 85.6629 94.3623 84.9023 94.6065 84.0916C94.8472 83.292 94.9391 82.3846 94.9769 81.4602C95.0147 80.5358 95 79.5135 95 78.5H93ZM90.5 72C90.6152 72 90.7447 72.0301 90.8952 72.1137L91.8664 70.3653C91.4541 70.1363 90.9933 70 90.5 70V72ZM90.8952 72.1137C91.3385 72.3599 91.882 73.032 92.3163 74.2185C92.7368 75.367 93 76.8543 93 78.5H95C95 76.6556 94.707 74.931 94.1945 73.531C93.6959 72.1691 92.9298 70.956 91.8664 70.3653L90.8952 72.1137ZM88.5 69C88.6152 69 88.7447 69.0301 88.8952 69.1137L89.8664 67.3653C89.4541 67.1363 88.9933 67 88.5 67V69ZM88.8952 69.1137C89.3853 69.3859 89.9852 70.1709 90.4291 71.5466L92.3325 70.9324C91.835 69.3906 91.0234 68.008 89.8664 67.3653L88.8952 69.1137ZM86.5 66C86.7114 66 87.0209 66.11 87.3972 66.5423C87.7732 66.9743 88.1399 67.6501 88.4291 68.5466L90.3325 67.9324C89.9902 66.8717 89.5138 65.9278 88.9058 65.2293C88.2982 64.5312 87.4831 64 86.5 64V66ZM86.1883 79.6376C86.0029 78.5184 86 77.1268 86 75.5H84C84 77.0737 83.9971 78.6484 84.2153 79.9646L86.1883 79.6376ZM87.5352 81.8583C86.85 81.616 86.4144 81.0015 86.1883 79.6376L84.2153 79.9646C84.4808 81.567 85.1355 83.1311 86.8684 83.7439L87.5352 81.8583ZM90.5 85C89.6387 85 89.1859 84.7563 88.8998 84.447C88.578 84.099 88.3357 83.5266 88.1883 82.6376L86.2153 82.9646C86.3885 84.0099 86.7213 85.037 87.4315 85.8049C88.1775 86.6115 89.2134 87 90.5 87V85ZM88 78.5C88 76.7383 88.3016 75.1608 88.7727 73.9862C89.2658 72.7569 89.8514 72.1841 90.2652 72.0411L89.6123 70.1507C88.36 70.5832 87.4762 71.8461 86.9164 73.2417C86.3347 74.6921 86 76.529 86 78.5H88ZM90.2652 72.0411C90.3481 72.0125 90.4254 72 90.5 72V70C90.1926 70 89.8949 70.0531 89.6123 70.1507L90.2652 72.0411ZM88.1883 82.6376C88.0632 81.8825 88.0199 80.9876 88.0063 79.9641L86.0065 79.9908C86.0204 81.0348 86.0644 82.054 86.2153 82.9646L88.1883 82.6376ZM88.0063 79.9641C88 79.4943 88 79.0071 88 78.5H86C86 79.0044 86 79.5053 86.0065 79.9908L88.0063 79.9641ZM21.0028 75.5C21.0028 73.3165 20.5918 71.2909 19.8838 69.7738C19.2138 68.3379 18.0886 67 16.5028 67V69C16.85 69 17.4748 69.341 18.0715 70.6196C18.6302 71.8169 19.0028 73.5414 19.0028 75.5H21.0028ZM10.0028 78.5C10.0028 79.5135 9.98811 80.5358 10.0259 81.4602C10.0637 82.3846 10.1556 83.292 10.3963 84.0916C10.6404 84.9023 11.0562 85.6629 11.7798 86.2089C12.5041 86.7554 13.4214 87 14.5028 87V85C13.7189 85 13.2661 84.8249 12.9844 84.6124C12.7021 84.3993 12.476 84.0615 12.3114 83.515C12.1435 82.9573 12.0598 82.2486 12.0242 81.3785C11.9887 80.5083 12.0028 79.5575 12.0028 78.5H10.0028ZM14.5028 70C14.0095 70 13.5487 70.1363 13.1364 70.3653L14.1076 72.1137C14.2581 72.0301 14.3876 72 14.5028 72V70ZM16.5028 67C16.0095 67 15.5487 67.1363 15.1364 67.3653L16.1076 69.1137C16.2581 69.0301 16.3876 69 16.5028 69V67ZM15.1364 67.3653C13.9794 68.008 13.1678 69.3906 12.6703 70.9324L14.5736 71.5466C15.0175 70.1709 15.6175 69.3859 16.1076 69.1137L15.1364 67.3653ZM18.5028 64C17.5196 64 16.7046 64.5312 16.097 65.2293C15.489 65.9278 15.0126 66.8717 14.6703 67.9324L16.5736 68.5466C16.8629 67.6501 17.2296 66.9743 17.6056 66.5423C17.9819 66.11 18.2914 66 18.5028 66V64ZM20.7875 79.9646C21.0057 78.6484 21.0028 77.0737 21.0028 75.5H19.0028C19.0028 77.1268 18.9999 78.5184 18.8144 79.6376L20.7875 79.9646ZM18.1344 83.7439C19.8673 83.1311 20.522 81.567 20.7875 79.9646L18.8144 79.6376C18.5884 81.0015 18.1528 81.616 17.4676 81.8583L18.1344 83.7439ZM14.5028 87C15.7893 87 16.8253 86.6115 17.5713 85.8049C18.2814 85.037 18.6143 84.0099 18.7875 82.9646L16.8144 82.6376C16.6671 83.5266 16.4248 84.099 16.103 84.447C15.8169 84.7563 15.3641 85 14.5028 85V87ZM19.0028 78.5C19.0028 76.529 18.6681 74.6921 18.0864 73.2417C17.5266 71.8461 16.6428 70.5832 15.3905 70.1507L14.7376 72.0411C15.1514 72.1841 15.737 72.7569 16.2301 73.9862C16.7012 75.1608 17.0028 76.7383 17.0028 78.5H19.0028ZM15.3905 70.1507C15.1079 70.0531 14.8102 70 14.5028 70V72C14.5774 72 14.6547 72.0125 14.7376 72.0411L15.3905 70.1507ZM18.7875 82.9646C18.9384 82.054 18.9824 81.0348 18.9963 79.9908L16.9965 79.9641C16.9829 80.9876 16.9396 81.8825 16.8144 82.6376L18.7875 82.9646ZM18.9963 79.9908C19.0028 79.5053 19.0028 79.0044 19.0028 78.5H17.0028C17.0028 79.0071 17.0028 79.4943 16.9965 79.9641L18.9963 79.9908ZM23.0028 72.5C23.0028 70.3855 22.6175 68.4213 21.9519 66.9234C21.3194 65.4996 20.2797 64.1822 18.7995 64.0166L18.5771 66.0042C18.9436 66.0452 19.5612 66.4682 20.1242 67.7354C20.6542 68.9284 21.0028 70.6057 21.0028 72.5H23.0028ZM18.7995 64.0166C18.7013 64.0056 18.6024 64 18.5028 64V66C18.5277 66 18.5524 66.0014 18.5771 66.0042L18.7995 64.0166ZM19.6883 65.0104V53.5H17.6883V65.0104H19.6883ZM20.1344 80.7439C21.3004 80.3316 22 79.4689 22.4012 78.4371C22.7858 77.4476 22.9172 76.2564 22.9687 75.0424L20.9705 74.9576C20.9209 76.1276 20.7969 77.0439 20.5371 77.7124C20.2937 78.3385 19.9595 78.6844 19.4676 78.8583L20.1344 80.7439ZM22.9687 75.0424C23.003 74.2353 23.0028 73.3717 23.0028 72.5H21.0028C21.0028 73.3815 21.0026 74.2008 20.9705 74.9576L22.9687 75.0424ZM21.9696 76H48V74H21.9696V76ZM13.1364 70.3653C12.4464 70.7486 11.8922 71.389 11.4613 72.1243C11.0252 72.8685 10.6801 73.7694 10.4356 74.7605L12.3774 75.2395C12.5868 74.3905 12.8689 73.6781 13.1869 73.1355C13.51 72.5841 13.8365 72.2642 14.1076 72.1137L13.1364 70.3653ZM10.4356 74.7605C10.1571 75.8892 10.0028 77.1611 10.0028 78.5H12.0028C12.0028 77.3108 12.1403 76.2005 12.3774 75.2395L10.4356 74.7605ZM7 76H11.4065V74H7V76ZM79 76H83.0332V74H79V76ZM85.5352 78.8583C85.0432 78.6844 84.7091 78.3385 84.4657 77.7124C84.2058 77.0439 84.0819 76.1276 84.0323 74.9576L82.0341 75.0424C82.0856 76.2564 82.217 77.4476 82.6016 78.4371C83.0027 79.4689 83.7024 80.3316 84.8684 80.7439L85.5352 78.8583ZM84.0323 74.9576C84.0002 74.2008 84 73.3815 84 72.5H82C82 73.3717 81.9998 74.2353 82.0341 75.0424L84.0323 74.9576ZM84 72.5C84 70.8984 84.2493 69.4462 84.6507 68.3101C85.0637 67.1414 85.5887 66.4401 86.0377 66.1537L84.9623 64.4675C83.9655 65.1031 83.2406 66.2977 82.765 67.6438C82.2778 69.0226 82 70.704 82 72.5H84ZM86.0377 66.1537C86.2184 66.0385 86.3701 66 86.5 66V64C85.9349 64 85.4153 64.1785 84.9623 64.4675L86.0377 66.1537ZM84.5 53.5V65.3106H86.5V53.5H84.5Z" fill="black"/>
</svg>
