<svg xmlns="http://www.w3.org/2000/svg" xmlns:xlink="http://www.w3.org/1999/xlink">
  <defs>
    <symbol id="add" viewBox="0 0 24 24" xmlns="http://www.w3.org/2000/svg">
        <path d="M12.75 4.125C12.75 3.82663 12.6315 3.54048 12.4205 3.3295C12.2095 3.11853 11.9234 3 11.625 3C11.3266 3 11.0405 3.11853 10.8295 3.3295C10.6185 3.54048 10.5 3.82663 10.5 4.125V10.5H4.125C3.82663 10.5 3.54048 10.6185 3.3295 10.8295C3.11853 11.0405 3 11.3266 3 11.625C3 11.9234 3.11853 12.2095 3.3295 12.4205C3.54048 12.6315 3.82663 12.75 4.125 12.75H10.5V19.125C10.5 19.4234 10.6185 19.7095 10.8295 19.9205C11.0405 20.1315 11.3266 20.25 11.625 20.25C11.9234 20.25 12.2095 20.1315 12.4205 19.9205C12.6315 19.7095 12.75 19.4234 12.75 19.125V12.75H19.125C19.4234 12.75 19.7095 12.6315 19.9205 12.4205C20.1315 12.2095 20.25 11.9234 20.25 11.625C20.25 11.3266 20.1315 11.0405 19.9205 10.8295C19.7095 10.6185 19.4234 10.5 19.125 10.5H12.75V4.125Z" fill="currentColor"/>
    </symbol>
    <symbol id="car" viewBox="0 0 24 24" xmlns="http://www.w3.org/2000/svg">
        <path d="M20.985 10.3491C20.9743 10.2995 20.9586 10.2511 20.9381 10.2047L19.1672 6.07219C18.7589 5.11734 17.7656 4.5 16.6355 4.5H7.36453C6.23531 4.5 5.24109 5.11734 4.83328 6.07219L3.06047 10.2047C3.02018 10.2979 2.99959 10.3984 3 10.5V18.75C3 18.9489 3.07902 19.1397 3.21967 19.2803C3.36032 19.421 3.55109 19.5 3.75 19.5H5.25C5.44891 19.5 5.63968 19.421 5.78033 19.2803C5.92098 19.1397 6 18.9489 6 18.75V18H18V18.75C18 18.9489 18.079 19.1397 18.2197 19.2803C18.3603 19.421 18.5511 19.5 18.75 19.5H20.25C20.4489 19.5 20.6397 19.421 20.7803 19.2803C20.921 19.1397 21 18.9489 21 18.75V10.5C21.0001 10.4493 20.995 10.3987 20.985 10.3491ZM6.75 15C6.45333 15 6.16332 14.912 5.91664 14.7472C5.66997 14.5824 5.47771 14.3481 5.36418 14.074C5.25065 13.7999 5.22094 13.4983 5.27882 13.2074C5.3367 12.9164 5.47956 12.6491 5.68934 12.4393C5.89912 12.2296 6.16639 12.0867 6.45736 12.0288C6.74833 11.9709 7.04993 12.0006 7.32402 12.1142C7.59811 12.2277 7.83238 12.42 7.9972 12.6666C8.16202 12.9133 8.25 13.2033 8.25 13.5C8.25 13.8978 8.09196 14.2794 7.81066 14.5607C7.52935 14.842 7.14782 15 6.75 15ZM17.25 15C16.9533 15 16.6633 14.912 16.4166 14.7472C16.17 14.5824 15.9777 14.3481 15.8642 14.074C15.7506 13.7999 15.7209 13.4983 15.7788 13.2074C15.8367 12.9164 15.9796 12.6491 16.1893 12.4393C16.3991 12.2296 16.6664 12.0867 16.9574 12.0288C17.2483 11.9709 17.5499 12.0006 17.824 12.1142C18.0981 12.2277 18.3324 12.42 18.4972 12.6666C18.662 12.9133 18.75 13.2033 18.75 13.5C18.75 13.8978 18.592 14.2794 18.3107 14.5607C18.0294 14.842 17.6478 15 17.25 15ZM4.88719 9.75L6.21047 6.66328C6.38015 6.26672 6.84375 6 7.36453 6H16.6355C17.1558 6 17.6198 6.26672 17.7895 6.66328L19.1128 9.75H4.88719Z" fill="currentColor"/>
    </symbol>
    <symbol id="change" viewBox="0 0 24 24" xmlns="http://www.w3.org/2000/svg">
        <path fill-rule="evenodd" clip-rule="evenodd" d="M6.91361 2.3636C7.26508 2.01213 7.83493 2.01213 8.1864 2.3636L11.7864 5.9636C12.1379 6.31508 12.1379 6.88492 11.7864 7.2364C11.4349 7.58787 10.8651 7.58787 10.5136 7.2364L8.45 5.17279V21C8.45 21.4971 8.04706 21.9 7.55 21.9C7.05295 21.9 6.65 21.4971 6.65 21V5.17279L4.5864 7.2364C4.23493 7.58787 3.66508 7.58787 3.31361 7.2364C2.96214 6.88492 2.96214 6.31508 3.31361 5.9636L6.91361 2.3636ZM16.55 3C16.55 2.50294 16.9529 2.1 17.45 2.1C17.9471 2.1 18.35 2.50294 18.35 3V18.8272L20.4136 16.7636C20.7651 16.4121 21.3349 16.4121 21.6864 16.7636C22.0379 17.1151 22.0379 17.6849 21.6864 18.0364L18.0864 21.6364C17.7349 21.9879 17.1651 21.9879 16.8136 21.6364L13.2136 18.0364C12.8621 17.6849 12.8621 17.1151 13.2136 16.7636C13.5651 16.4121 14.1349 16.4121 14.4864 16.7636L16.55 18.8272V3Z" fill="currentColor"/>
    </symbol>
    <symbol id="check" viewBox="0 0 24 24" xmlns="http://www.w3.org/2000/svg">
        <path fill-rule="evenodd" clip-rule="evenodd" d="M21.546 5.111C21.8272 5.39229 21.9852 5.77375 21.9852 6.1715C21.9852 6.56924 21.8272 6.95071 21.546 7.232L10.303 18.475C10.1544 18.6236 9.97803 18.7415 9.78388 18.8219C9.58974 18.9024 9.38165 18.9438 9.1715 18.9438C8.96136 18.9438 8.75327 18.9024 8.55913 18.8219C8.36498 18.7415 8.18858 18.6236 8.04 18.475L2.454 12.89C2.31074 12.7516 2.19646 12.5861 2.11785 12.4031C2.03924 12.2201 1.99786 12.0233 1.99613 11.8241C1.9944 11.6249 2.03235 11.4274 2.10777 11.2431C2.18319 11.0587 2.29457 10.8912 2.43541 10.7504C2.57625 10.6096 2.74373 10.4982 2.92807 10.4228C3.11242 10.3473 3.30994 10.3094 3.50911 10.3111C3.70827 10.3129 3.9051 10.3542 4.08811 10.4328C4.27112 10.5115 4.43663 10.6257 4.575 10.769L9.171 15.365L19.424 5.111C19.5633 4.97161 19.7287 4.86103 19.9108 4.78559C20.0928 4.71015 20.2879 4.67132 20.485 4.67132C20.6821 4.67132 20.8772 4.71015 21.0593 4.78559C21.2413 4.86103 21.4067 4.97161 21.546 5.111Z" fill="currentColor"/>
    </symbol>
    <symbol id="company" viewBox="0 0 24 24" xmlns="http://www.w3.org/2000/svg">
        <path d="M18 15H16V17H18M18 11H16V13H18M20 19H12V17H14V15H12V13H14V11H12V9H20M10 7H8V5H10M10 11H8V9H10M10 15H8V13H10M10 19H8V17H10M6 7H4V5H6M6 11H4V9H6M6 15H4V13H6M6 19H4V17H6M12 7V5C12 3.89543 11.1046 3 10 3H4C2.89543 3 2 3.89543 2 5V19C2 20.1046 2.89543 21 4 21H20C21.1046 21 22 20.1046 22 19V9C22 7.89543 21.1046 7 20 7H12Z" fill="currentColor"/>
    </symbol>
    <symbol id="decrease" viewBox="0 0 24 24" xmlns="http://www.w3.org/2000/svg">
        <path fill-rule="evenodd" clip-rule="evenodd" d="M3.25371 5.52524C2.93204 5.20358 2.49576 5.02286 2.04085 5.02286C1.58594 5.02286 1.14967 5.20358 0.827997 5.52524C0.506327 5.84691 0.325615 6.28319 0.325615 6.7381C0.325615 7.19301 0.506327 7.62929 0.827997 7.95096L6.54171 13.663L6.55371 13.675C7.02054 14.1322 7.64797 14.3883 8.30143 14.3883C8.95488 14.3883 9.58231 14.1322 10.0491 13.675L10.0611 13.663L12.9771 10.747L17.0006 15.0018L15.2177 16.7847C15.0381 16.9645 14.9159 17.1935 14.8663 17.4427C14.8168 17.692 14.8423 17.9503 14.9395 18.1851C15.0367 18.4199 15.2013 18.6206 15.4126 18.7619C15.6238 18.9032 15.8722 18.9787 16.1263 18.979H22.3869C22.7278 18.979 23.0549 18.8435 23.296 18.6024C23.5371 18.3613 23.6726 18.0342 23.6726 17.6932V11.4327C23.6723 11.1785 23.5968 10.9302 23.4555 10.719C23.3142 10.5077 23.1135 10.3431 22.8787 10.2459C22.6439 10.1487 22.3856 10.1232 22.1363 10.1727C21.8871 10.2222 21.6581 10.3445 21.4783 10.5241L19.4263 12.5778L14.7909 7.67324C14.5618 7.43684 14.2883 7.24804 13.986 7.11769C13.6838 6.98735 13.3588 6.91803 13.0296 6.91373C12.7005 6.90943 12.3737 6.97023 12.0682 7.09263C11.7626 7.21503 11.4843 7.39662 11.2491 7.62696L11.2371 7.63896L8.30057 10.5738L3.25371 5.52524Z" fill="currentColor"/>
    </symbol>
    <symbol id="down" viewBox="0 0 24 24" xmlns="http://www.w3.org/2000/svg">
        <path fill-rule="evenodd" clip-rule="evenodd" d="M5.29289 8.29289C5.68342 7.90237 6.31658 7.90237 6.70711 8.29289L12 13.5858L17.2929 8.29289C17.6834 7.90237 18.3166 7.90237 18.7071 8.29289C19.0976 8.68342 19.0976 9.31658 18.7071 9.70711L12.7071 15.7071C12.3166 16.0976 11.6834 16.0976 11.2929 15.7071L5.29289 9.70711C4.90237 9.31658 4.90237 8.68342 5.29289 8.29289Z" fill="currentColor"/>
    </symbol>
    <symbol id="electricity" viewBox="0 0 24 24" xmlns="http://www.w3.org/2000/svg">
        <path d="M12 22C11.45 22 10.9793 21.8043 10.588 21.413C10.1967 21.0217 10.0007 20.5507 10 20H14C14 20.55 13.8043 21.021 13.413 21.413C13.0217 21.805 12.5507 22.0007 12 22ZM8 19V17H16V19H8ZM8.25 16C7.1 15.3167 6.18733 14.4 5.512 13.25C4.83667 12.1 4.49933 10.85 4.5 9.5C4.5 7.41667 5.22933 5.646 6.688 4.188C8.14667 2.73 9.91733 2.00067 12 2C14.0833 2 15.8543 2.72933 17.313 4.188C18.7717 5.64667 19.5007 7.41733 19.5 9.5C19.5 10.85 19.1627 12.1 18.488 13.25C17.8133 14.4 16.9007 15.3167 15.75 16H8.25Z" fill="currentColor"/>
    </symbol>
    <symbol id="filter" viewBox="0 0 24 24" xmlns="http://www.w3.org/2000/svg">
        <path d="M2 5.5C2 5.10218 2.15804 4.72064 2.43934 4.43934C2.72064 4.15804 3.10218 4 3.5 4H20.5C20.8978 4 21.2794 4.15804 21.5607 4.43934C21.842 4.72064 22 5.10218 22 5.5C22 5.89782 21.842 6.27936 21.5607 6.56066C21.2794 6.84196 20.8978 7 20.5 7H3.5C3.10218 7 2.72064 6.84196 2.43934 6.56066C2.15804 6.27936 2 5.89782 2 5.5ZM6 11.5C6 11.1022 6.15804 10.7206 6.43934 10.4393C6.72064 10.158 7.10218 10 7.5 10H16.5C16.8978 10 17.2794 10.158 17.5607 10.4393C17.842 10.7206 18 11.1022 18 11.5C18 11.8978 17.842 12.2794 17.5607 12.5607C17.2794 12.842 16.8978 13 16.5 13H7.5C7.10218 13 6.72064 12.842 6.43934 12.5607C6.15804 12.2794 6 11.8978 6 11.5ZM10.5 16C10.1022 16 9.72064 16.158 9.43934 16.4393C9.15804 16.7206 9 17.1022 9 17.5C9 17.8978 9.15804 18.2794 9.43934 18.5607C9.72064 18.842 10.1022 19 10.5 19H13.5C13.8978 19 14.2794 18.842 14.5607 18.5607C14.842 18.2794 15 17.8978 15 17.5C15 17.1022 14.842 16.7206 14.5607 16.4393C14.2794 16.158 13.8978 16 13.5 16H10.5Z" fill="currentColor"/>
    </symbol>
    <symbol id="fire" viewBox="0 0 24 24" xmlns="http://www.w3.org/2000/svg">
        <path d="M6.156 9.323L6.154 9.325L6.15 9.328L6.14 9.336C6.09656 9.36889 6.05453 9.40358 6.014 9.44C5.90892 9.53231 5.80815 9.62942 5.712 9.731C5.472 9.984 5.164 10.36 4.875 10.863C4.293 11.878 3.804 13.391 4.079 15.414C4.35 17.411 5.189 19.08 6.607 20.244C8.021 21.404 9.935 22 12.25 22C14.637 22 16.543 21.105 17.804 19.57C19.054 18.049 19.612 15.974 19.479 13.706C19.351 11.53 18.166 9.879 17.119 8.421L16.82 8.004C15.678 6.392 14.777 4.907 14.996 2.829C15.0071 2.72442 14.996 2.61867 14.9636 2.51863C14.9311 2.41859 14.878 2.32649 14.8077 2.24831C14.7373 2.17014 14.6513 2.10763 14.5552 2.06485C14.4592 2.02207 14.3552 1.99998 14.25 2C13.868 2 13.43 2.118 13.008 2.296C12.5193 2.50542 12.0582 2.7741 11.635 3.096C10.71 3.794 9.785 4.846 9.292 6.252C8.8 7.654 9.05 8.99 9.41 9.963C9.647 10.602 9.39 11.233 9.003 11.417C8.83834 11.4949 8.64994 11.5061 8.47718 11.4484C8.30442 11.3906 8.16068 11.2683 8.076 11.107L7.27 9.576C7.21956 9.47995 7.14888 9.396 7.06284 9.32992C6.97679 9.26384 6.87744 9.21721 6.77163 9.19326C6.66582 9.1693 6.55608 9.16858 6.44997 9.19115C6.34385 9.21373 6.2439 9.25905 6.157 9.324" fill="currentColor"/>
    </symbol>
    <symbol id="government" viewBox="0 0 24 24" xmlns="http://www.w3.org/2000/svg">
        <path d="M4 21V19H16V21H4ZM9.65 16.15L4 10.5L6.1 8.35L11.8 14L9.65 16.15ZM16 9.8L10.35 4.1L12.5 2L18.15 7.65L16 9.8ZM20.6 20L7.55 6.95L8.95 5.55L22 18.6L20.6 20Z" fill="currentColor"/>
    </symbol>
    <symbol id="grab" viewBox="0 0 24 24" xmlns="http://www.w3.org/2000/svg">
        <path fill-rule="evenodd" clip-rule="evenodd" d="M6 3.75C6 2.50736 7.00736 1.5 8.25 1.5C9.49264 1.5 10.5 2.50736 10.5 3.75C10.5 4.99264 9.49264 6 8.25 6C7.00736 6 6 4.99264 6 3.75ZM13.494 3.75C13.494 2.50736 14.5014 1.5 15.744 1.5C16.9866 1.5 17.994 2.50736 17.994 3.75C17.994 4.99264 16.9866 6 15.744 6C14.5014 6 13.494 4.99264 13.494 3.75ZM6 12C6 10.7574 7.00736 9.75 8.25 9.75C9.49264 9.75 10.5 10.7574 10.5 12C10.5 13.2426 9.49264 14.25 8.25 14.25C7.00736 14.25 6 13.2426 6 12ZM13.494 12C13.494 10.7574 14.5014 9.75 15.744 9.75C16.9866 9.75 17.994 10.7574 17.994 12C17.994 13.2426 16.9866 14.25 15.744 14.25C14.5014 14.25 13.494 13.2426 13.494 12ZM6 20.25C6 19.0074 7.00736 18 8.25 18C9.49264 18 10.5 19.0074 10.5 20.25C10.5 21.4926 9.49264 22.5 8.25 22.5C7.00736 22.5 6 21.4926 6 20.25ZM13.494 20.25C13.494 19.0074 14.5014 18 15.744 18C16.9866 18 17.994 19.0074 17.994 20.25C17.994 21.4926 16.9866 22.5 15.744 22.5C14.5014 22.5 13.494 21.4926 13.494 20.25Z" fill="currentColor"/>
    </symbol>
    <symbol id="hammer" viewBox="0 0 24 24" xmlns="http://www.w3.org/2000/svg">
        <path d="M16.9123 3.48343C14.4746 1.06457 9.50657 0.793715 6.65829 3.66086C6.19114 4.11814 6.27557 4.641 6.59314 4.95857C6.81729 5.19214 7.17171 5.295 7.50814 5.19214C9.49714 4.56643 11.337 4.51072 12.8031 5.59372L12.0189 7.68557C11.7197 8.49814 11.8787 9.06772 12.411 9.60943L14.568 11.7759C14.9979 12.2147 15.474 12.3459 16.0997 12.1959L17.6126 11.8504L18.3411 12.579L18.2194 13.6436C18.1543 14.0824 18.21 14.3533 18.5931 14.7364L19.3217 15.4367C19.7229 15.8383 20.2367 15.8756 20.6194 15.4924L23.6173 12.5139C24 12.1307 23.9439 11.6173 23.5517 11.2063L22.8326 10.4871C22.4683 10.1134 22.179 10.0389 21.7586 10.1044L20.685 10.2351L19.947 9.52543L20.3953 7.91914C20.5354 7.39629 20.358 6.91029 19.7974 6.35914L16.9123 3.48343ZM0.951857 19.2C0.0471429 20.0031 5.96046e-08 20.8436 0.840857 21.6934L2.32543 23.169C3.15643 24 4.02471 23.9533 4.81886 23.0567L13.8116 12.9617L11.0473 10.2069L0.951857 19.2Z" fill="currentColor"/>
    </symbol>
    <symbol id="increase" viewBox="0 0 24 24" xmlns="http://www.w3.org/2000/svg">
        <path fill-rule="evenodd" clip-rule="evenodd" d="M3.25372 18.4766C2.93205 18.7982 2.49577 18.979 2.04086 18.979C1.58595 18.979 1.14967 18.7982 0.828001 18.4766C0.506331 18.1549 0.325619 17.7186 0.325619 17.2637C0.325619 16.8088 0.506331 16.3725 0.828001 16.0509L6.54172 10.3389L6.55372 10.3269C7.02055 9.86962 7.64798 9.61354 8.30143 9.61354C8.95488 9.61354 9.58231 9.86962 10.0491 10.3269L10.0611 10.3389L12.9771 13.2549L17.0006 9L15.2177 7.21714C15.0381 7.03734 14.9159 6.80835 14.8663 6.55909C14.8168 6.30984 14.8423 6.0515 14.9395 5.8167C15.0367 5.58191 15.2013 5.38119 15.4126 5.2399C15.6238 5.09861 15.8722 5.02308 16.1263 5.02286H22.3869C22.7278 5.02286 23.0549 5.15832 23.296 5.39943C23.5371 5.64055 23.6726 5.96758 23.6726 6.30857V12.5691C23.6723 12.8233 23.5968 13.0716 23.4555 13.2829C23.3142 13.4941 23.1135 13.6587 22.8787 13.7559C22.6439 13.8531 22.3856 13.8786 22.1363 13.8291C21.8871 13.7796 21.6581 13.6573 21.4783 13.4777L19.4263 11.424L14.7909 16.3286C14.5618 16.565 14.2883 16.7538 13.9861 16.8841C13.6838 17.0145 13.3588 17.0838 13.0296 17.0881C12.7005 17.0924 12.3738 17.0316 12.0682 16.9092C11.7626 16.7868 11.4843 16.6052 11.2491 16.3749L11.2371 16.3629L8.30057 13.428L3.25372 18.4766Z" fill="currentColor"/>
    </symbol>
    <symbol id="independent" viewBox="0 0 24 24" xmlns="http://www.w3.org/2000/svg">
        <path fill-rule="evenodd" clip-rule="evenodd" d="M5.59999 10.7593L12 5.07036L16.8314 9.36493C16.7783 9.56772 16.75 9.78056 16.75 10C16.75 11.0823 17.4377 12.0039 18.4 12.3518C18.8977 12.5317 19.4928 12.5448 20 12.3856C21.0143 12.067 21.75 11.1194 21.75 10C21.75 8.61929 20.6307 7.5 19.25 7.5C18.676 7.5 18.1472 7.69344 17.7252 8.0187L12 2.92964L3.99999 10.0407L4 13C4.50717 12.8407 5.10233 12.8539 5.6 13.0338L5.59999 10.7593ZM20.75 10C20.75 9.17157 20.0784 8.5 19.25 8.5C18.9749 8.5 18.7171 8.57406 18.4954 8.70334C18.0496 8.96334 17.75 9.44668 17.75 10C17.75 10.0652 17.7542 10.1294 17.7622 10.1923C17.8176 10.625 18.0573 11 18.4 11.2361C18.6416 11.4025 18.9344 11.5 19.25 11.5C19.5232 11.5 19.7794 11.427 20 11.2993C20.4483 11.04 20.75 10.5552 20.75 10Z" fill="currentColor"/>
        <path fill-rule="evenodd" clip-rule="evenodd" d="M18.4 19.2H5.59999V18.3518C6.56227 18.0039 7.25 17.0823 7.25 16C7.25 14.9177 6.56227 13.9961 5.59999 13.6482C5.10232 13.4683 4.50716 13.4552 3.99999 13.6145C2.98572 13.933 2.25 14.8806 2.25 16C2.25 17.1194 2.98572 18.067 3.99999 18.3855V20.8H20L20 13C19.4928 13.1593 18.8977 13.1461 18.4 12.9662L18.4 19.2ZM4.75 14.5C3.92157 14.5 3.25 15.1716 3.25 16C3.25 16.5552 3.55165 17.04 3.99999 17.2993C4.22063 17.427 4.47678 17.5 4.75 17.5C5.06558 17.5 5.35839 17.4025 5.59999 17.2361C5.99263 16.9656 6.25 16.5128 6.25 16C6.25 15.1716 5.57843 14.5 4.75 14.5Z" fill="currentColor"/>
    </symbol>
    <symbol id="leaf" viewBox="0 0 24 24" xmlns="http://www.w3.org/2000/svg">
        <path fill-rule="evenodd" clip-rule="evenodd" d="M17.11 3.006C17.2594 3.02245 17.4031 3.07235 17.5305 3.15199C17.6579 3.23163 17.7658 3.33896 17.846 3.466C21.046 8.533 20.563 13.912 17.89 17.3C16.555 18.991 14.68 20.171 12.493 20.52C10.585 20.823 8.5 20.484 6.399 19.384C6.206 19.993 6.069 20.584 5.99 21.141C5.95157 21.4027 5.81106 21.6384 5.59921 21.7967C5.38736 21.955 5.12143 22.023 4.85961 21.9857C4.59779 21.9484 4.36141 21.8089 4.20218 21.5978C4.04295 21.3866 3.97385 21.121 4.01 20.859C4.14855 19.931 4.38383 19.02 4.712 18.141C3.175 16.451 2.755 14.313 2.942 12.403C3.148 10.296 4.109 8.275 5.36 7.232C7.032 5.839 8.788 5.267 10.312 4.987C10.978 4.87154 11.6486 4.78446 12.322 4.726C12.801 4.678 13.29 4.646 13.758 4.53C14.4506 4.36204 15.1126 4.08671 15.72 3.714C16.162 3.438 16.539 2.942 17.11 3.006ZM7.15 17.518C8.262 15.251 10.08 13.078 12.447 11.894C12.5655 11.8359 12.6714 11.755 12.7584 11.6558C12.8455 11.5566 12.9121 11.4412 12.9543 11.3162C12.9966 11.1911 13.0137 11.059 13.0046 10.9273C12.9955 10.7956 12.9605 10.6671 12.9015 10.549C12.8425 10.4309 12.7607 10.3257 12.6609 10.2394C12.561 10.1531 12.4451 10.0875 12.3197 10.0462C12.1944 10.0049 12.0621 9.98885 11.9305 9.99895C11.7989 10.009 11.6706 10.0451 11.553 10.105C8.945 11.409 6.947 13.664 5.648 16.069C5.90619 16.4897 6.22648 16.869 6.598 17.194C6.783 17.31 6.967 17.417 7.15 17.518Z" fill="currentColor"/>
    </symbol>
    <symbol id="money" viewBox="0 0 24 24" xmlns="http://www.w3.org/2000/svg">
        <path d="M12.5 6.9C14.28 6.9 14.94 7.75 15 9H17.21C17.14 7.28 16.09 5.7 14 5.19V3H11V5.16C10.61 5.24 10.25 5.37 9.9 5.52L11.41 7.03C11.73 6.95 12.1 6.9 12.5 6.9ZM5.47 3.92L4.06 5.33L7.5 8.77C7.5 10.85 9.06 11.99 11.41 12.68L14.92 16.19C14.58 16.68 13.87 17.1 12.5 17.1C10.44 17.1 9.63 16.18 9.52 15H7.32C7.44 17.19 9.08 18.42 11 18.83V21H14V18.85C14.96 18.67 15.83 18.3 16.46 17.73L18.68 19.95L20.09 18.54L5.47 3.92Z" fill="currentColor"/>
    </symbol>
    <symbol id="remove" viewBox="0 0 24 24" xmlns="http://www.w3.org/2000/svg">
        <path d="M18.0988 7.68979C18.3098 7.47881 18.4283 7.19266 18.4283 6.89429C18.4283 6.59592 18.3098 6.30977 18.0988 6.0988C17.8878 5.88782 17.6017 5.76929 17.3033 5.76929C17.0049 5.76929 16.7188 5.88782 16.5078 6.0988L12 10.6066L7.4922 6.0988C7.28122 5.88782 6.99507 5.76929 6.6967 5.76929C6.39833 5.76929 6.11218 5.88782 5.90121 6.0988C5.69023 6.30977 5.5717 6.59592 5.5717 6.89429C5.5717 7.19266 5.69023 7.47881 5.90121 7.68979L10.409 12.1976L5.90121 16.7054C5.69023 16.9164 5.5717 17.2025 5.5717 17.5009C5.5717 17.7993 5.69023 18.0854 5.90121 18.2964C6.11218 18.5074 6.39833 18.6259 6.6967 18.6259C6.99507 18.6259 7.28122 18.5074 7.4922 18.2964L12 13.7886L16.5078 18.2964C16.7188 18.5074 17.0049 18.6259 17.3033 18.6259C17.6017 18.6259 17.8878 18.5074 18.0988 18.2964C18.3098 18.0854 18.4283 17.7993 18.4283 17.5009C18.4283 17.2025 18.3098 16.9164 18.0988 16.7054L13.591 12.1976L18.0988 7.68979Z" fill="currentColor"/>
    </symbol>
    <symbol id="search" viewBox="0 0 24 24" xmlns="http://www.w3.org/2000/svg">
        <path fill-rule="evenodd" clip-rule="evenodd" d="M6.93853 2.60896C7.90914 2.20693 8.94943 2 10 2C11.0506 2 12.0909 2.20693 13.0615 2.60896C14.0321 3.011 14.914 3.60028 15.6569 4.34315C16.3997 5.08601 16.989 5.96793 17.391 6.93853C17.7931 7.90914 18 8.94943 18 10C18 11.0506 17.7931 12.0909 17.391 13.0615C17.1172 13.7226 16.7565 14.3425 16.3196 14.9054L21.7071 20.2929C22.0976 20.6834 22.0976 21.3166 21.7071 21.7071C21.3166 22.0976 20.6834 22.0976 20.2929 21.7071L14.9054 16.3196C14.3425 16.7565 13.7226 17.1172 13.0615 17.391C12.0909 17.7931 11.0506 18 10 18C8.94943 18 7.90914 17.7931 6.93853 17.391C5.96793 16.989 5.08601 16.3997 4.34315 15.6569C3.60028 14.914 3.011 14.0321 2.60896 13.0615C2.20693 12.0909 2 11.0506 2 10C2 8.94942 2.20693 7.90914 2.60896 6.93853C3.011 5.96793 3.60028 5.08601 4.34315 4.34315C5.08601 3.60028 5.96793 3.011 6.93853 2.60896ZM10 4C9.21207 4 8.43185 4.15519 7.7039 4.45672C6.97595 4.75825 6.31451 5.20021 5.75736 5.75736C5.20021 6.31451 4.75825 6.97595 4.45672 7.7039C4.15519 8.43185 4 9.21207 4 10C4 10.7879 4.15519 11.5681 4.45672 12.2961C4.75825 13.0241 5.20021 13.6855 5.75736 14.2426C6.31451 14.7998 6.97595 15.2417 7.7039 15.5433C8.43185 15.8448 9.21207 16 10 16C10.7879 16 11.5681 15.8448 12.2961 15.5433C13.0241 15.2417 13.6855 14.7998 14.2426 14.2426C14.7998 13.6855 15.2417 13.0241 15.5433 12.2961C15.8448 11.5681 16 10.7879 16 10C16 9.21207 15.8448 8.43185 15.5433 7.7039C15.2417 6.97595 14.7998 6.31451 14.2426 5.75736C13.6855 5.20021 13.0241 4.75825 12.2961 4.45672C11.5681 4.15519 10.7879 4 10 4Z" fill="currentColor"/>
    </symbol>
    <symbol id="sort" viewBox="0 0 24 24" xmlns="http://www.w3.org/2000/svg">
        <path fill-rule="evenodd" clip-rule="evenodd" d="M6.91361 2.3636C7.26508 2.01213 7.83493 2.01213 8.1864 2.3636L11.7864 5.9636C12.1379 6.31508 12.1379 6.88492 11.7864 7.2364C11.4349 7.58787 10.8651 7.58787 10.5136 7.2364L8.45 5.17279V21C8.45 21.4971 8.04706 21.9 7.55 21.9C7.05295 21.9 6.65 21.4971 6.65 21V5.17279L4.5864 7.2364C4.23493 7.58787 3.66508 7.58787 3.31361 7.2364C2.96214 6.88492 2.96214 6.31508 3.31361 5.9636L6.91361 2.3636ZM16.55 3C16.55 2.50294 16.9529 2.1 17.45 2.1C17.9471 2.1 18.35 2.50294 18.35 3V18.8272L20.4136 16.7636C20.7651 16.4121 21.3349 16.4121 21.6864 16.7636C22.0379 17.1151 22.0379 17.6849 21.6864 18.0364L18.0864 21.6364C17.7349 21.9879 17.1651 21.9879 16.8136 21.6364L13.2136 18.0364C12.8621 17.6849 12.8621 17.1151 13.2136 16.7636C13.5651 16.4121 14.1349 16.4121 14.4864 16.7636L16.55 18.8272V3Z" fill="currentColor"/>
    </symbol>
    <symbol id="trash" viewBox="0 0 24 24" xmlns="http://www.w3.org/2000/svg">
        <path d="M10.6871 4.1586C10.7397 4.13891 10.8306 4.11233 10.9647 4.08638C11.3041 4.02644 11.6482 3.99752 11.9929 3.99997L12 4C12.3916 4 12.7547 4.03251 13.0285 4.08507C13.1659 4.11137 13.2586 4.13847 13.3114 4.15829L13.3191 4.16124C13.7236 4.47569 14.3085 4.43441 14.6641 4.05218C15.0403 3.64785 15.0175 3.01509 14.6132 2.63889C14.4171 2.45646 14.1861 2.35033 14.0138 2.28571C13.8256 2.21509 13.6179 2.16162 13.4055 2.12093C12.9824 2.03976 12.4905 2.00019 12.0035 2C11.5357 1.99689 11.0685 2.03654 10.6079 2.11844L10.595 2.12083C10.3826 2.1615 10.1749 2.21489 9.98693 2.28515C9.81608 2.349 9.58377 2.45475 9.38705 2.63766C8.98259 3.01374 8.95958 3.64649 9.33566 4.05094C9.69072 4.4328 10.2746 4.47465 10.6791 4.16164L10.6871 4.1586Z" fill="currentColor"/>
        <path fill-rule="evenodd" clip-rule="evenodd" d="M3 6H21L21.001 9C20.4706 9 19.9619 9.21071 19.5868 9.58579C19.2117 9.96086 19.001 10.4696 19.001 11V15C19.001 17.828 19.001 19.243 18.121 20.121C17.243 21 15.829 21 13 21H11C8.17201 21 6.757 21 5.879 20.121C5 19.243 5 17.828 5 15V11C5 10.4696 4.78929 9.96086 4.41421 9.58579C4.03914 9.21071 3.53043 9 3 9V6ZM10.2071 10.2929C10.3946 10.4804 10.5 10.7348 10.5 11V16C10.5 16.2652 10.3946 16.5196 10.2071 16.7071C10.0196 16.8946 9.76522 17 9.5 17C9.23478 17 8.98043 16.8946 8.79289 16.7071C8.60536 16.5196 8.5 16.2652 8.5 16V11C8.5 10.7348 8.60536 10.4804 8.79289 10.2929C8.98043 10.1054 9.23478 10 9.5 10C9.76522 10 10.0196 10.1054 10.2071 10.2929ZM15.2071 10.2929C15.3946 10.4804 15.5 10.7348 15.5 11V16C15.5 16.2652 15.3946 16.5196 15.2071 16.7071C15.0196 16.8946 14.7652 17 14.5 17C14.2348 17 13.9804 16.8946 13.7929 16.7071C13.6054 16.5196 13.5 16.2652 13.5 16V11C13.5 10.7348 13.6054 10.4804 13.7929 10.2929C13.9804 10.1054 14.2348 10 14.5 10C14.7652 10 15.0196 10.1054 15.2071 10.2929Z" fill="currentColor"/>
    </symbol>
    <symbol id="water" viewBox="0 0 24 24" xmlns="http://www.w3.org/2000/svg">
        <path d="M12.4275 2.81813C12.3747 2.75645 12.3092 2.70695 12.2354 2.673C12.1617 2.63906 12.0814 2.62148 12.0002 2.62148C11.919 2.62148 11.8388 2.63906 11.7651 2.673C11.6913 2.70695 11.6258 2.75645 11.573 2.81813C10.0889 4.55391 5.25 10.5548 5.25 15C5.25 19.1423 7.85812 21.75 12 21.75C16.1419 21.75 18.75 19.1423 18.75 15C18.75 10.5548 13.9111 4.55391 12.4275 2.81813ZM12.75 19.3125C12.6599 19.3127 12.5711 19.2913 12.491 19.25C12.4109 19.2087 12.3419 19.1488 12.2898 19.0753C12.2377 19.0018 12.2041 18.9168 12.1916 18.8276C12.1792 18.7384 12.1884 18.6474 12.2184 18.5625C12.2568 18.4517 12.3291 18.3558 12.4252 18.2884C12.5212 18.2211 12.636 18.1858 12.7533 18.1875C13.4978 18.1859 14.2114 17.8894 14.7379 17.3629C15.2644 16.8364 15.5609 16.1228 15.5625 15.3783C15.5608 15.261 15.5961 15.1462 15.6634 15.0502C15.7308 14.9541 15.8267 14.8818 15.9375 14.8434C16.0224 14.8134 16.1134 14.8042 16.2026 14.8166C16.2918 14.8291 16.3768 14.8627 16.4503 14.9148C16.5238 14.9669 16.5837 15.0359 16.625 15.116C16.6663 15.1961 16.6877 15.2849 16.6875 15.375C16.6864 16.4189 16.2712 17.4198 15.533 18.158C14.7948 18.8962 13.7939 19.3114 12.75 19.3125Z" fill="currentColor"/>
    </symbol>
  </defs>
</svg>