<svg xmlns="http://www.w3.org/2000/svg" xmlns:xlink="http://www.w3.org/1999/xlink">
  <defs>
    <symbol id="add" viewBox="0 0 24 24" xmlns="http://www.w3.org/2000/svg">
        <path d="M12.75 4.125C12.75 3.82663 12.6315 3.54048 12.4205 3.3295C12.2095 3.11853 11.9234 3 11.625 3C11.3266 3 11.0405 3.11853 10.8295 3.3295C10.6185 3.54048 10.5 3.82663 10.5 4.125V10.5H4.125C3.82663 10.5 3.54048 10.6185 3.3295 10.8295C3.11853 11.0405 3 11.3266 3 11.625C3 11.9234 3.11853 12.2095 3.3295 12.4205C3.54048 12.6315 3.82663 12.75 4.125 12.75H10.5V19.125C10.5 19.4234 10.6185 19.7095 10.8295 19.9205C11.0405 20.1315 11.3266 20.25 11.625 20.25C11.9234 20.25 12.2095 20.1315 12.4205 19.9205C12.6315 19.7095 12.75 19.4234 12.75 19.125V12.75H19.125C19.4234 12.75 19.7095 12.6315 19.9205 12.4205C20.1315 12.2095 20.25 11.9234 20.25 11.625C20.25 11.3266 20.1315 11.0405 19.9205 10.8295C19.7095 10.6185 19.4234 10.5 19.125 10.5H12.75V4.125Z" fill="currentColor"/>
    </symbol>
    <symbol id="car" viewBox="0 0 24 24" xmlns="http://www.w3.org/2000/svg">
        <path d="M20.985 10.3491C20.9743 10.2995 20.9586 10.2511 20.9381 10.2047L19.1672 6.07219C18.7589 5.11734 17.7656 4.5 16.6355 4.5H7.36453C6.23531 4.5 5.24109 5.11734 4.83328 6.07219L3.06047 10.2047C3.02018 10.2979 2.99959 10.3984 3 10.5V18.75C3 18.9489 3.07902 19.1397 3.21967 19.2803C3.36032 19.421 3.55109 19.5 3.75 19.5H5.25C5.44891 19.5 5.63968 19.421 5.78033 19.2803C5.92098 19.1397 6 18.9489 6 18.75V18H18V18.75C18 18.9489 18.079 19.1397 18.2197 19.2803C18.3603 19.421 18.5511 19.5 18.75 19.5H20.25C20.4489 19.5 20.6397 19.421 20.7803 19.2803C20.921 19.1397 21 18.9489 21 18.75V10.5C21.0001 10.4493 20.995 10.3987 20.985 10.3491ZM6.75 15C6.45333 15 6.16332 14.912 5.91664 14.7472C5.66997 14.5824 5.47771 14.3481 5.36418 14.074C5.25065 13.7999 5.22094 13.4983 5.27882 13.2074C5.3367 12.9164 5.47956 12.6491 5.68934 12.4393C5.89912 12.2296 6.16639 12.0867 6.45736 12.0288C6.74833 11.9709 7.04993 12.0006 7.32402 12.1142C7.59811 12.2277 7.83238 12.42 7.9972 12.6666C8.16202 12.9133 8.25 13.2033 8.25 13.5C8.25 13.8978 8.09196 14.2794 7.81066 14.5607C7.52935 14.842 7.14782 15 6.75 15ZM17.25 15C16.9533 15 16.6633 14.912 16.4166 14.7472C16.17 14.5824 15.9777 14.3481 15.8642 14.074C15.7506 13.7999 15.7209 13.4983 15.7788 13.2074C15.8367 12.9164 15.9796 12.6491 16.1893 12.4393C16.3991 12.2296 16.6664 12.0867 16.9574 12.0288C17.2483 11.9709 17.5499 12.0006 17.824 12.1142C18.0981 12.2277 18.3324 12.42 18.4972 12.6666C18.662 12.9133 18.75 13.2033 18.75 13.5C18.75 13.8978 18.592 14.2794 18.3107 14.5607C18.0294 14.842 17.6478 15 17.25 15ZM4.88719 9.75L6.21047 6.66328C6.38015 6.26672 6.84375 6 7.36453 6H16.6355C17.1558 6 17.6198 6.26672 17.7895 6.66328L19.1128 9.75H4.88719Z" fill="currentColor"/>
    </symbol>
    <symbol id="change" viewBox="0 0 24 24" xmlns="http://www.w3.org/2000/svg">
        <path fill-rule="evenodd" clip-rule="evenodd" d="M6.91361 2.3636C7.26508 2.01213 7.83493 2.01213 8.1864 2.3636L11.7864 5.9636C12.1379 6.31508 12.1379 6.88492 11.7864 7.2364C11.4349 7.58787 10.8651 7.58787 10.5136 7.2364L8.45 5.17279V21C8.45 21.4971 8.04706 21.9 7.55 21.9C7.05295 21.9 6.65 21.4971 6.65 21V5.17279L4.5864 7.2364C4.23493 7.58787 3.66508 7.58787 3.31361 7.2364C2.96214 6.88492 2.96214 6.31508 3.31361 5.9636L6.91361 2.3636ZM16.55 3C16.55 2.50294 16.9529 2.1 17.45 2.1C17.9471 2.1 18.35 2.50294 18.35 3V18.8272L20.4136 16.7636C20.7651 16.4121 21.3349 16.4121 21.6864 16.7636C22.0379 17.1151 22.0379 17.6849 21.6864 18.0364L18.0864 21.6364C17.7349 21.9879 17.1651 21.9879 16.8136 21.6364L13.2136 18.0364C12.8621 17.6849 12.8621 17.1151 13.2136 16.7636C13.5651 16.4121 14.1349 16.4121 14.4864 16.7636L16.55 18.8272V3Z" fill="currentColor"/>
    </symbol>
    <symbol id="check" viewBox="0 0 24 24" xmlns="http://www.w3.org/2000/svg">
        <path fill-rule="evenodd" clip-rule="evenodd" d="M21.546 5.111C21.8272 5.39229 21.9852 5.77375 21.9852 6.1715C21.9852 6.56924 21.8272 6.95071 21.546 7.232L10.303 18.475C10.1544 18.6236 9.97803 18.7415 9.78388 18.8219C9.58974 18.9024 9.38165 18.9438 9.1715 18.9438C8.96136 18.9438 8.75327 18.9024 8.55913 18.8219C8.36498 18.7415 8.18858 18.6236 8.04 18.475L2.454 12.89C2.31074 12.7516 2.19646 12.5861 2.11785 12.4031C2.03924 12.2201 1.99786 12.0233 1.99613 11.8241C1.9944 11.6249 2.03235 11.4274 2.10777 11.2431C2.18319 11.0587 2.29457 10.8912 2.43541 10.7504C2.57625 10.6096 2.74373 10.4982 2.92807 10.4228C3.11242 10.3473 3.30994 10.3094 3.50911 10.3111C3.70827 10.3129 3.9051 10.3542 4.08811 10.4328C4.27112 10.5115 4.43663 10.6257 4.575 10.769L9.171 15.365L19.424 5.111C19.5633 4.97161 19.7287 4.86103 19.9108 4.78559C20.0928 4.71015 20.2879 4.67132 20.485 4.67132C20.6821 4.67132 20.8772 4.71015 21.0593 4.78559C21.2413 4.86103 21.4067 4.97161 21.546 5.111Z" fill="currentColor"/>
    </symbol>
    <symbol id="company" viewBox="0 0 24 24" xmlns="http://www.w3.org/2000/svg">
        <path d="M18 15H16V17H18M18 11H16V13H18M20 19H12V17H14V15H12V13H14V11H12V9H20M10 7H8V5H10M10 11H8V9H10M10 15H8V13H10M10 19H8V17H10M6 7H4V5H6M6 11H4V9H6M6 15H4V13H6M6 19H4V17H6M12 7V5C12 3.89543 11.1046 3 10 3H4C2.89543 3 2 3.89543 2 5V19C2 20.1046 2.89543 21 4 21H20C21.1046 21 22 20.1046 22 19V9C22 7.89543 21.1046 7 20 7H12Z" fill="currentColor"/>
    </symbol>
    <symbol id="decrease" viewBox="0 0 24 24" xmlns="http://www.w3.org/2000/svg">
        <path fill-rule="evenodd" clip-rule="evenodd" d="M3.25371 5.52524C2.93204 5.20358 2.49576 5.02286 2.04085 5.02286C1.58594 5.02286 1.14967 5.20358 0.827997 5.52524C0.506327 5.84691 0.325615 6.28319 0.325615 6.7381C0.325615 7.19301 0.506327 7.62929 0.827997 7.95096L6.54171 13.663L6.55371 13.675C7.02054 14.1322 7.64797 14.3883 8.30143 14.3883C8.95488 14.3883 9.58231 14.1322 10.0491 13.675L10.0611 13.663L12.9771 10.747L17.0006 15.0018L15.2177 16.7847C15.0381 16.9645 14.9159 17.1935 14.8663 17.4427C14.8168 17.692 14.8423 17.9503 14.9395 18.1851C15.0367 18.4199 15.2013 18.6206 15.4126 18.7619C15.6238 18.9032 15.8722 18.9787 16.1263 18.979H22.3869C22.7278 18.979 23.0549 18.8435 23.296 18.6024C23.5371 18.3613 23.6726 18.0342 23.6726 17.6932V11.4327C23.6723 11.1785 23.5968 10.9302 23.4555 10.719C23.3142 10.5077 23.1135 10.3431 22.8787 10.2459C22.6439 10.1487 22.3856 10.1232 22.1363 10.1727C21.8871 10.2222 21.6581 10.3445 21.4783 10.5241L19.4263 12.5778L14.7909 7.67324C14.5618 7.43684 14.2883 7.24804 13.986 7.11769C13.6838 6.98735 13.3588 6.91803 13.0296 6.91373C12.7005 6.90943 12.3737 6.97023 12.0682 7.09263C11.7626 7.21503 11.4843 7.39662 11.2491 7.62696L11.2371 7.63896L8.30057 10.5738L3.25371 5.52524Z" fill="currentColor"/>
    </symbol>
    <symbol id="down" viewBox="0 0 24 24" xmlns="http://www.w3.org/2000/svg">
        <path fill-rule="evenodd" clip-rule="evenodd" d="M5.29289 8.29289C5.68342 7.90237 6.31658 7.90237 6.70711 8.29289L12 13.5858L17.2929 8.29289C17.6834 7.90237 18.3166 7.90237 18.7071 8.29289C19.0976 8.68342 19.0976 9.31658 18.7071 9.70711L12.7071 15.7071C12.3166 16.0976 11.6834 16.0976 11.2929 15.7071L5.29289 9.70711C4.90237 9.31658 4.90237 8.68342 5.29289 8.29289Z" fill="currentColor"/>
    </symbol>
    <symbol id="electricity" viewBox="0 0 24 24" xmlns="http://www.w3.org/2000/svg">
        <path d="M12 22C11.45 22 10.9793 21.8043 10.588 21.413C10.1967 21.0217 10.0007 20.5507 10 20H14C14 20.55 13.8043 21.021 13.413 21.413C13.0217 21.805 12.5507 22.0007 12 22ZM8 19V17H16V19H8ZM8.25 16C7.1 15.3167 6.18733 14.4 5.512 13.25C4.83667 12.1 4.49933 10.85 4.5 9.5C4.5 7.41667 5.22933 5.646 6.688 4.188C8.14667 2.73 9.91733 2.00067 12 2C14.0833 2 15.8543 2.72933 17.313 4.188C18.7717 5.64667 19.5007 7.41733 19.5 9.5C19.5 10.85 19.1627 12.1 18.488 13.25C17.8133 14.4 16.9007 15.3167 15.75 16H8.25Z" fill="currentColor"/>
    </symbol>
    <symbol id="filter" viewBox="0 0 24 24" xmlns="http://www.w3.org/2000/svg">
        <path d="M2 5.5C2 5.10218 2.15804 4.72064 2.43934 4.43934C2.72064 4.15804 3.10218 4 3.5 4H20.5C20.8978 4 21.2794 4.15804 21.5607 4.43934C21.842 4.72064 22 5.10218 22 5.5C22 5.89782 21.842 6.27936 21.5607 6.56066C21.2794 6.84196 20.8978 7 20.5 7H3.5C3.10218 7 2.72064 6.84196 2.43934 6.56066C2.15804 6.27936 2 5.89782 2 5.5ZM6 11.5C6 11.1022 6.15804 10.7206 6.43934 10.4393C6.72064 10.158 7.10218 10 7.5 10H16.5C16.8978 10 17.2794 10.158 17.5607 10.4393C17.842 10.7206 18 11.1022 18 11.5C18 11.8978 17.842 12.2794 17.5607 12.5607C17.2794 12.842 16.8978 13 16.5 13H7.5C7.10218 13 6.72064 12.842 6.43934 12.5607C6.15804 12.2794 6 11.8978 6 11.5ZM10.5 16C10.1022 16 9.72064 16.158 9.43934 16.4393C9.15804 16.7206 9 17.1022 9 17.5C9 17.8978 9.15804 18.2794 9.43934 18.5607C9.72064 18.842 10.1022 19 10.5 19H13.5C13.8978 19 14.2794 18.842 14.5607 18.5607C14.842 18.2794 15 17.8978 15 17.5C15 17.1022 14.842 16.7206 14.5607 16.4393C14.2794 16.158 13.8978 16 13.5 16H10.5Z" fill="currentColor"/>
    </symbol>
    <symbol id="fire" viewBox="0 0 24 24" xmlns="http://www.w3.org/2000/svg">
        <path d="M6.156 9.323L6.154 9.325L6.15 9.328L6.14 9.336C6.09656 9.36889 6.05453 9.40358 6.014 9.44C5.90892 9.53231 5.80815 9.62942 5.712 9.731C5.472 9.984 5.164 10.36 4.875 10.863C4.293 11.878 3.804 13.391 4.079 15.414C4.35 17.411 5.189 19.08 6.607 20.244C8.021 21.404 9.935 22 12.25 22C14.637 22 16.543 21.105 17.804 19.57C19.054 18.049 19.612 15.974 19.479 13.706C19.351 11.53 18.166 9.879 17.119 8.421L16.82 8.004C15.678 6.392 14.777 4.907 14.996 2.829C15.0071 2.72442 14.996 2.61867 14.9636 2.51863C14.9311 2.41859 14.878 2.32649 14.8077 2.24831C14.7373 2.17014 14.6513 2.10763 14.5552 2.06485C14.4592 2.02207 14.3552 1.99998 14.25 2C13.868 2 13.43 2.118 13.008 2.296C12.5193 2.50542 12.0582 2.7741 11.635 3.096C10.71 3.794 9.785 4.846 9.292 6.252C8.8 7.654 9.05 8.99 9.41 9.963C9.647 10.602 9.39 11.233 9.003 11.417C8.83834 11.4949 8.64994 11.5061 8.47718 11.4484C8.30442 11.3906 8.16068 11.2683 8.076 11.107L7.27 9.576C7.21956 9.47995 7.14888 9.396 7.06284 9.32992C6.97679 9.26384 6.87744 9.21721 6.77163 9.19326C6.66582 9.1693 6.55608 9.16858 6.44997 9.19115C6.34385 9.21373 6.2439 9.25905 6.157 9.324" fill="currentColor"/>
    </symbol>
    <symbol id="government" viewBox="0 0 24 24" xmlns="http://www.w3.org/2000/svg">
        <path d="M4 21V19H16V21H4ZM9.65 16.15L4 10.5L6.1 8.35L11.8 14L9.65 16.15ZM16 9.8L10.35 4.1L12.5 2L18.15 7.65L16 9.8ZM20.6 20L7.55 6.95L8.95 5.55L22 18.6L20.6 20Z" fill="currentColor"/>
    </symbol>
    <symbol id="grab" viewBox="0 0 24 24" xmlns="http://www.w3.org/2000/svg">
        <path fill-rule="evenodd" clip-rule="evenodd" d="M6 3.75C6 2.50736 7.00736 1.5 8.25 1.5C9.49264 1.5 10.5 2.50736 10.5 3.75C10.5 4.99264 9.49264 6 8.25 6C7.00736 6 6 4.99264 6 3.75ZM13.494 3.75C13.494 2.50736 14.5014 1.5 15.744 1.5C16.9866 1.5 17.994 2.50736 17.994 3.75C17.994 4.99264 16.9866 6 15.744 6C14.5014 6 13.494 4.99264 13.494 3.75ZM6 12C6 10.7574 7.00736 9.75 8.25 9.75C9.49264 9.75 10.5 10.7574 10.5 12C10.5 13.2426 9.49264 14.25 8.25 14.25C7.00736 14.25 6 13.2426 6 12ZM13.494 12C13.494 10.7574 14.5014 9.75 15.744 9.75C16.9866 9.75 17.994 10.7574 17.994 12C17.994 13.2426 16.9866 14.25 15.744 14.25C14.5014 14.25 13.494 13.2426 13.494 12ZM6 20.25C6 19.0074 7.00736 18 8.25 18C9.49264 18 10.5 19.0074 10.5 20.25C10.5 21.4926 9.49264 22.5 8.25 22.5C7.00736 22.5 6 21.4926 6 20.25ZM13.494 20.25C13.494 19.0074 14.5014 18 15.744 18C16.9866 18 17.994 19.0074 17.994 20.25C17.994 21.4926 16.9866 22.5 15.744 22.5C14.5014 22.5 13.494 21.4926 13.494 20.25Z" fill="currentColor"/>
    </symbol>
    <symbol id="hammer" viewBox="0 0 24 24" xmlns="http://www.w3.org/2000/svg">
        <path d="M16.9123 3.48343C14.4746 1.06457 9.50657 0.793715 6.65829 3.66086C6.19114 4.11814 6.27557 4.641 6.59314 4.95857C6.81729 5.19214 7.17171 5.295 7.50814 5.19214C9.49714 4.56643 11.337 4.51072 12.8031 5.59372L12.0189 7.68557C11.7197 8.49814 11.8787 9.06772 12.411 9.60943L14.568 11.7759C14.9979 12.2147 15.474 12.3459 16.0997 12.1959L17.6126 11.8504L18.3411 12.579L18.2194 13.6436C18.1543 14.0824 18.21 14.3533 18.5931 14.7364L19.3217 15.4367C19.7229 15.8383 20.2367 15.8756 20.6194 15.4924L23.6173 12.5139C24 12.1307 23.9439 11.6173 23.5517 11.2063L22.8326 10.4871C22.4683 10.1134 22.179 10.0389 21.7586 10.1044L20.685 10.2351L19.947 9.52543L20.3953 7.91914C20.5354 7.39629 20.358 6.91029 19.7974 6.35914L16.9123 3.48343ZM0.951857 19.2C0.0471429 20.0031 5.96046e-08 20.8436 0.840857 21.6934L2.32543 23.169C3.15643 24 4.02471 23.9533 4.81886 23.0567L13.8116 12.9617L11.0473 10.2069L0.951857 19.2Z" fill="currentColor"/>
    </symbol>
    <symbol id="increase" viewBox="0 0 24 24" xmlns="http://www.w3.org/2000/svg">
        <path fill-rule="evenodd" clip-rule="evenodd" d="M3.25372 18.4766C2.93205 18.7982 2.49577 18.979 2.04086 18.979C1.58595 18.979 1.14967 18.7982 0.828001 18.4766C0.506331 18.1549 0.325619 17.7186 0.325619 17.2637C0.325619 16.8088 0.506331 16.3725 0.828001 16.0509L6.54172 10.3389L6.55372 10.3269C7.02055 9.86962 7.64798 9.61354 8.30143 9.61354C8.95488 9.61354 9.58231 9.86962 10.0491 10.3269L10.0611 10.3389L12.9771 13.2549L17.0006 9L15.2177 7.21714C15.0381 7.03734 14.9159 6.80835 14.8663 6.55909C14.8168 6.30984 14.8423 6.0515 14.9395 5.8167C15.0367 5.58191 15.2013 5.38119 15.4126 5.2399C15.6238 5.09861 15.8722 5.02308 16.1263 5.02286H22.3869C22.7278 5.02286 23.0549 5.15832 23.296 5.39943C23.5371 5.64055 23.6726 5.96758 23.6726 6.30857V12.5691C23.6723 12.8233 23.5968 13.0716 23.4555 13.2829C23.3142 13.4941 23.1135 13.6587 22.8787 13.7559C22.6439 13.8531 22.3856 13.8786 22.1363 13.8291C21.8871 13.7796 21.6581 13.6573 21.4783 13.4777L19.4263 11.424L14.7909 16.3286C14.5618 16.565 14.2883 16.7538 13.9861 16.8841C13.6838 17.0145 13.3588 17.0838 13.0296 17.0881C12.7005 17.0924 12.3738 17.0316 12.0682 16.9092C11.7626 16.7868 11.4843 16.6052 11.2491 16.3749L11.2371 16.3629L8.30057 13.428L3.25372 18.4766Z" fill="currentColor"/>
    </symbol>
    <symbol id="independent" viewBox="0 0 24 24" xmlns="http://www.w3.org/2000/svg">
        <path fill-rule="evenodd" clip-rule="evenodd" d="M5.59999 10.7593L12 5.07036L16.8314 9.36493C16.7783 9.56772 16.75 9.78056 16.75 10C16.75 11.0823 17.4377 12.0039 18.4 12.3518C18.8977 12.5317 19.4928 12.5448 20 12.3856C21.0143 12.067 21.75 11.1194 21.75 10C21.75 8.61929 20.6307 7.5 19.25 7.5C18.676 7.5 18.1472 7.69344 17.7252 8.0187L12 2.92964L3.99999 10.0407L4 13C4.50717 12.8407 5.10233 12.8539 5.6 13.0338L5.59999 10.7593ZM20.75 10C20.75 9.17157 20.0784 8.5 19.25 8.5C18.9749 8.5 18.7171 8.57406 18.4954 8.70334C18.0496 8.96334 17.75 9.44668 17.75 10C17.75 10.0652 17.7542 10.1294 17.7622 10.1923C17.8176 10.625 18.0573 11 18.4 11.2361C18.6416 11.4025 18.9344 11.5 19.25 11.5C19.5232 11.5 19.7794 11.427 20 11.2993C20.4483 11.04 20.75 10.5552 20.75 10Z" fill="currentColor"/>
        <path fill-rule="evenodd" clip-rule="evenodd" d="M18.4 19.2H5.59999V18.3518C6.56227 18.0039 7.25 17.0823 7.25 16C7.25 14.9177 6.56227 13.9961 5.59999 13.6482C5.10232 13.4683 4.50716 13.4552 3.99999 13.6145C2.98572 13.933 2.25 14.8806 2.25 16C2.25 17.1194 2.98572 18.067 3.99999 18.3855V20.8H20L20 13C19.4928 13.1593 18.8977 13.1461 18.4 12.9662L18.4 19.2ZM4.75 14.5C3.92157 14.5 3.25 15.1716 3.25 16C3.25 16.5552 3.55165 17.04 3.99999 17.2993C4.22063 17.427 4.47678 17.5 4.75 17.5C5.06558 17.5 5.35839 17.4025 5.59999 17.2361C5.99263 16.9656 6.25 16.5128 6.25 16C6.25 15.1716 5.57843 14.5 4.75 14.5Z" fill="currentColor"/>
    </symbol>
    <symbol id="leaf" viewBox="0 0 24 24" xmlns="http://www.w3.org/2000/svg">
        <path fill-rule="evenodd" clip-rule="evenodd" d="M17.11 3.006C17.2594 3.02245 17.4031 3.07235 17.5305 3.15199C17.6579 3.23163 17.7658 3.33896 17.846 3.466C21.046 8.533 20.563 13.912 17.89 17.3C16.555 18.991 14.68 20.171 12.493 20.52C10.585 20.823 8.5 20.484 6.399 19.384C6.206 19.993 6.069 20.584 5.99 21.141C5.95157 21.4027 5.81106 21.6384 5.59921 21.7967C5.38736 21.955 5.12143 22.023 4.85961 21.9857C4.59779 21.9484 4.36141 21.8089 4.20218 21.5978C4.04295 21.3866 3.97385 21.121 4.01 20.859C4.14855 19.931 4.38383 19.02 4.712 18.141C3.175 16.451 2.755 14.313 2.942 12.403C3.148 10.296 4.109 8.275 5.36 7.232C7.032 5.839 8.788 5.267 10.312 4.987C10.978 4.87154 11.6486 4.78446 12.322 4.726C12.801 4.678 13.29 4.646 13.758 4.53C14.4506 4.36204 15.1126 4.08671 15.72 3.714C16.162 3.438 16.539 2.942 17.11 3.006ZM7.15 17.518C8.262 15.251 10.08 13.078 12.447 11.894C12.5655 11.8359 12.6714 11.755 12.7584 11.6558C12.8455 11.5566 12.9121 11.4412 12.9543 11.3162C12.9966 11.1911 13.0137 11.059 13.0046 10.9273C12.9955 10.7956 12.9605 10.6671 12.9015 10.549C12.8425 10.4309 12.7607 10.3257 12.6609 10.2394C12.561 10.1531 12.4451 10.0875 12.3197 10.0462C12.1944 10.0049 12.0621 9.98885 11.9305 9.99895C11.7989 10.009 11.6706 10.0451 11.553 10.105C8.945 11.409 6.947 13.664 5.648 16.069C5.90619 16.4897 6.22648 16.869 6.598 17.194C6.783 17.31 6.967 17.417 7.15 17.518Z" fill="currentColor"/>
    </symbol>
    <symbol id="money" viewBox="0 0 24 24" xmlns="http://www.w3.org/2000/svg">
        <path d="M12.5 6.9C14.28 6.9 14.94 7.75 15 9H17.21C17.14 7.28 16.09 5.7 14 5.19V3H11V5.16C10.61 5.24 10.25 5.37 9.9 5.52L11.41 7.03C11.73 6.95 12.1 6.9 12.5 6.9ZM5.47 3.92L4.06 5.33L7.5 8.77C7.5 10.85 9.06 11.99 11.41 12.68L14.92 16.19C14.58 16.68 13.87 17.1 12.5 17.1C10.44 17.1 9.63 16.18 9.52 15H7.32C7.44 17.19 9.08 18.42 11 18.83V21H14V18.85C14.96 18.67 15.83 18.3 16.46 17.73L18.68 19.95L20.09 18.54L5.47 3.92Z" fill="currentColor"/>
    </symbol>
    <symbol id="remove" viewBox="0 0 24 24" xmlns="http://www.w3.org/2000/svg">
        <path d="M18.0988 7.68979C18.3098 7.47881 18.4283 7.19266 18.4283 6.89429C18.4283 6.59592 18.3098 6.30977 18.0988 6.0988C17.8878 5.88782 17.6017 5.76929 17.3033 5.76929C17.0049 5.76929 16.7188 5.88782 16.5078 6.0988L12 10.6066L7.4922 6.0988C7.28122 5.88782 6.99507 5.76929 6.6967 5.76929C6.39833 5.76929 6.11218 5.88782 5.90121 6.0988C5.69023 6.30977 5.5717 6.59592 5.5717 6.89429C5.5717 7.19266 5.69023 7.47881 5.90121 7.68979L10.409 12.1976L5.90121 16.7054C5.69023 16.9164 5.5717 17.2025 5.5717 17.5009C5.5717 17.7993 5.69023 18.0854 5.90121 18.2964C6.11218 18.5074 6.39833 18.6259 6.6967 18.6259C6.99507 18.6259 7.28122 18.5074 7.4922 18.2964L12 13.7886L16.5078 18.2964C16.7188 18.5074 17.0049 18.6259 17.3033 18.6259C17.6017 18.6259 17.8878 18.5074 18.0988 18.2964C18.3098 18.0854 18.4283 17.7993 18.4283 17.5009C18.4283 17.2025 18.3098 16.9164 18.0988 16.7054L13.591 12.1976L18.0988 7.68979Z" fill="currentColor"/>
    </symbol>
    <symbol id="search" viewBox="0 0 24 24" xmlns="http://www.w3.org/2000/svg">
        <path fill-rule="evenodd" clip-rule="evenodd" d="M6.93853 2.60896C7.90914 2.20693 8.94943 2 10 2C11.0506 2 12.0909 2.20693 13.0615 2.60896C14.0321 3.011 14.914 3.60028 15.6569 4.34315C16.3997 5.08601 16.989 5.96793 17.391 6.93853C17.7931 7.90914 18 8.94943 18 10C18 11.0506 17.7931 12.0909 17.391 13.0615C17.1172 13.7226 16.7565 14.3425 16.3196 14.9054L21.7071 20.2929C22.0976 20.6834 22.0976 21.3166 21.7071 21.7071C21.3166 22.0976 20.6834 22.0976 20.2929 21.7071L14.9054 16.3196C14.3425 16.7565 13.7226 17.1172 13.0615 17.391C12.0909 17.7931 11.0506 18 10 18C8.94943 18 7.90914 17.7931 6.93853 17.391C5.96793 16.989 5.08601 16.3997 4.34315 15.6569C3.60028 14.914 3.011 14.0321 2.60896 13.0615C2.20693 12.0909 2 11.0506 2 10C2 8.94942 2.20693 7.90914 2.60896 6.93853C3.011 5.96793 3.60028 5.08601 4.34315 4.34315C5.08601 3.60028 5.96793 3.011 6.93853 2.60896ZM10 4C9.21207 4 8.43185 4.15519 7.7039 4.45672C6.97595 4.75825 6.31451 5.20021 5.75736 5.75736C5.20021 6.31451 4.75825 6.97595 4.45672 7.7039C4.15519 8.43185 4 9.21207 4 10C4 10.7879 4.15519 11.5681 4.45672 12.2961C4.75825 13.0241 5.20021 13.6855 5.75736 14.2426C6.31451 14.7998 6.97595 15.2417 7.7039 15.5433C8.43185 15.8448 9.21207 16 10 16C10.7879 16 11.5681 15.8448 12.2961 15.5433C13.0241 15.2417 13.6855 14.7998 14.2426 14.2426C14.7998 13.6855 15.2417 13.0241 15.5433 12.2961C15.8448 11.5681 16 10.7879 16 10C16 9.21207 15.8448 8.43185 15.5433 7.7039C15.2417 6.97595 14.7998 6.31451 14.2426 5.75736C13.6855 5.20021 13.0241 4.75825 12.2961 4.45672C11.5681 4.15519 10.7879 4 10 4Z" fill="currentColor"/>
    </symbol>
    <symbol id="sort" viewBox="0 0 24 24" xmlns="http://www.w3.org/2000/svg">
        <path fill-rule="evenodd" clip-rule="evenodd" d="M6.91361 2.3636C7.26508 2.01213 7.83493 2.01213 8.1864 2.3636L11.7864 5.9636C12.1379 6.31508 12.1379 6.88492 11.7864 7.2364C11.4349 7.58787 10.8651 7.58787 10.5136 7.2364L8.45 5.17279V21C8.45 21.4971 8.04706 21.9 7.55 21.9C7.05295 21.9 6.65 21.4971 6.65 21V5.17279L4.5864 7.2364C4.23493 7.58787 3.66508 7.58787 3.31361 7.2364C2.96214 6.88492 2.96214 6.31508 3.31361 5.9636L6.91361 2.3636ZM16.55 3C16.55 2.50294 16.9529 2.1 17.45 2.1C17.9471 2.1 18.35 2.50294 18.35 3V18.8272L20.4136 16.7636C20.7651 16.4121 21.3349 16.4121 21.6864 16.7636C22.0379 17.1151 22.0379 17.6849 21.6864 18.0364L18.0864 21.6364C17.7349 21.9879 17.1651 21.9879 16.8136 21.6364L13.2136 18.0364C12.8621 17.6849 12.8621 17.1151 13.2136 16.7636C13.5651 16.4121 14.1349 16.4121 14.4864 16.7636L16.55 18.8272V3Z" fill="currentColor"/>
    </symbol>
    <symbol id="trash" viewBox="0 0 24 24" xmlns="http://www.w3.org/2000/svg">
        <path d="M10.6871 4.1586C10.7397 4.13891 10.8306 4.11233 10.9647 4.08638C11.3041 4.02644 11.6482 3.99752 11.9929 3.99997L12 4C12.3916 4 12.7547 4.03251 13.0285 4.08507C13.1659 4.11137 13.2586 4.13847 13.3114 4.15829L13.3191 4.16124C13.7236 4.47569 14.3085 4.43441 14.6641 4.05218C15.0403 3.64785 15.0175 3.01509 14.6132 2.63889C14.4171 2.45646 14.1861 2.35033 14.0138 2.28571C13.8256 2.21509 13.6179 2.16162 13.4055 2.12093C12.9824 2.03976 12.4905 2.00019 12.0035 2C11.5357 1.99689 11.0685 2.03654 10.6079 2.11844L10.595 2.12083C10.3826 2.1615 10.1749 2.21489 9.98693 2.28515C9.81608 2.349 9.58377 2.45475 9.38705 2.63766C8.98259 3.01374 8.95958 3.64649 9.33566 4.05094C9.69072 4.4328 10.2746 4.47465 10.6791 4.16164L10.6871 4.1586Z" fill="currentColor"/>
        <path fill-rule="evenodd" clip-rule="evenodd" d="M3 6H21L21.001 9C20.4706 9 19.9619 9.21071 19.5868 9.58579C19.2117 9.96086 19.001 10.4696 19.001 11V15C19.001 17.828 19.001 19.243 18.121 20.121C17.243 21 15.829 21 13 21H11C8.17201 21 6.757 21 5.879 20.121C5 19.243 5 17.828 5 15V11C5 10.4696 4.78929 9.96086 4.41421 9.58579C4.03914 9.21071 3.53043 9 3 9V6ZM10.2071 10.2929C10.3946 10.4804 10.5 10.7348 10.5 11V16C10.5 16.2652 10.3946 16.5196 10.2071 16.7071C10.0196 16.8946 9.76522 17 9.5 17C9.23478 17 8.98043 16.8946 8.79289 16.7071C8.60536 16.5196 8.5 16.2652 8.5 16V11C8.5 10.7348 8.60536 10.4804 8.79289 10.2929C8.98043 10.1054 9.23478 10 9.5 10C9.76522 10 10.0196 10.1054 10.2071 10.2929ZM15.2071 10.2929C15.3946 10.4804 15.5 10.7348 15.5 11V16C15.5 16.2652 15.3946 16.5196 15.2071 16.7071C15.0196 16.8946 14.7652 17 14.5 17C14.2348 17 13.9804 16.8946 13.7929 16.7071C13.6054 16.5196 13.5 16.2652 13.5 16V11C13.5 10.7348 13.6054 10.4804 13.7929 10.2929C13.9804 10.1054 14.2348 10 14.5 10C14.7652 10 15.0196 10.1054 15.2071 10.2929Z" fill="currentColor"/>
    </symbol>
    <symbol id="water" viewBox="0 0 24 24" xmlns="http://www.w3.org/2000/svg">
        <path d="M12.4275 2.81813C12.3747 2.75645 12.3092 2.70695 12.2354 2.673C12.1617 2.63906 12.0814 2.62148 12.0002 2.62148C11.919 2.62148 11.8388 2.63906 11.7651 2.673C11.6913 2.70695 11.6258 2.75645 11.573 2.81813C10.0889 4.55391 5.25 10.5548 5.25 15C5.25 19.1423 7.85812 21.75 12 21.75C16.1419 21.75 18.75 19.1423 18.75 15C18.75 10.5548 13.9111 4.55391 12.4275 2.81813ZM12.75 19.3125C12.6599 19.3127 12.5711 19.2913 12.491 19.25C12.4109 19.2087 12.3419 19.1488 12.2898 19.0753C12.2377 19.0018 12.2041 18.9168 12.1916 18.8276C12.1792 18.7384 12.1884 18.6474 12.2184 18.5625C12.2568 18.4517 12.3291 18.3558 12.4252 18.2884C12.5212 18.2211 12.636 18.1858 12.7533 18.1875C13.4978 18.1859 14.2114 17.8894 14.7379 17.3629C15.2644 16.8364 15.5609 16.1228 15.5625 15.3783C15.5608 15.261 15.5961 15.1462 15.6634 15.0502C15.7308 14.9541 15.8267 14.8818 15.9375 14.8434C16.0224 14.8134 16.1134 14.8042 16.2026 14.8166C16.2918 14.8291 16.3768 14.8627 16.4503 14.9148C16.5238 14.9669 16.5837 15.0359 16.625 15.116C16.6663 15.1961 16.6877 15.2849 16.6875 15.375C16.6864 16.4189 16.2712 17.4198 15.533 18.158C14.7948 18.8962 13.7939 19.3114 12.75 19.3125Z" fill="currentColor"/>
    </symbol>
    <symbol id="multi-family" viewBox="0 0 100 100" xmlns="http://www.w3.org/2000/svg">
        <path d="M86.4566 80.8615C88.6786 80.8615 90.4798 77.0388 90.4798 72.3232C90.4798 67.6076 88.6786 63.7848 86.4566 63.7848C85.5052 63.7848 84.631 64.4857 83.9422 65.6575V78.9888C84.631 80.1606 85.5052 80.8615 86.4566 80.8615Z" fill="#869E93"/>
        <path d="M12.0289 72.3232C12.0289 77.0388 13.8301 80.8615 16.052 80.8615C16.5855 80.8615 17.0948 80.6411 17.5607 80.2409V64.4055C17.0948 64.0052 16.5855 63.7848 16.052 63.7848C13.8301 63.7848 12.0289 67.6076 12.0289 72.3232Z" fill="#869E93"/>
        <path d="M7 81C6.44772 81 6 81.4477 6 82C6 82.5523 6.44772 83 7 83V81ZM94 83C94.5523 83 95 82.5523 95 82C95 81.4477 94.5523 81 94 81V83ZM14.5434 81C13.9911 81 13.5434 81.4477 13.5434 82C13.5434 82.5523 13.9911 83 14.5434 83V81ZM32.1445 28.4929L31.7662 27.5672L31.7367 27.5793L31.708 27.5932L32.1445 28.4929ZM12.641 59.3297L13.5762 58.9756L13.5762 58.9756L12.641 59.3297ZM13.9558 59.9305L14.386 60.8332L14.386 60.8332L13.9558 59.9305ZM12.4389 55.9313L11.9939 55.0357L11.9939 55.0357L12.4389 55.9313ZM11.9187 57.4221L10.9835 57.7762L10.9835 57.7762L11.9187 57.4221ZM28.1674 29.3732L29.0429 28.8898L29.0429 28.8898L28.1674 29.3732ZM29.4165 29.8162L28.9801 28.9165L29.4165 29.8162ZM27.2325 25.1438L27.6413 26.0564L27.2325 25.1438ZM26.7497 26.8057L25.8743 27.2891L25.8743 27.2891L26.7497 26.8057ZM73.7116 29.204L72.7624 28.8896L72.7624 28.8896L73.7116 29.204ZM72.4809 29.8947L72.1594 30.8416L72.1594 30.8416L72.4809 29.8947ZM73.9628 25.2397L74.3647 24.3241L74.3647 24.3241L73.9628 25.2397ZM74.5409 26.7009L75.4902 27.0154L75.4902 27.0154L74.5409 26.7009ZM88.8549 59.3483L89.7901 59.7024L89.7901 59.7024L88.8549 59.3483ZM87.5569 59.9568L87.9693 59.0459L87.9693 59.0459L87.5569 59.9568ZM50.9834 15.154L50.5815 16.0697L50.5815 16.0697L50.9834 15.154ZM49.5158 15.1598L49.1069 14.2472L49.1069 14.2472L49.5158 15.1598ZM89.0412 55.9416L88.613 56.8453L88.613 56.8453L89.0412 55.9416ZM89.5773 57.4402L88.6421 57.0861L88.6421 57.0861L89.5773 57.4402ZM49.5653 21.3722L49.9437 22.2979L49.9437 22.2979L49.5653 21.3722ZM50.9318 21.3722L51.3101 20.4466L51.3101 20.4466L50.9318 21.3722ZM83.9422 83H94V81H83.9422V83ZM7 83H17.5607V81H7V83ZM14.5434 83H17.5607V81H14.5434V83ZM17.5607 83H32.1445V81H17.5607V83ZM68.3526 83H83.9422V81H68.3526V83ZM32.5229 29.4185L49.9437 22.2979L49.187 20.4466L31.7662 27.5672L32.5229 29.4185ZM50.5534 22.2979L67.9742 29.4185L68.731 27.5672L51.3101 20.4466L50.5534 22.2979ZM50.5815 16.0697L73.5609 26.1554L74.3647 24.3241L51.3852 14.2383L50.5815 16.0697ZM73.5917 26.3864L72.7624 28.8896L74.6609 29.5185L75.4902 27.0154L73.5917 26.3864ZM72.8024 28.9478L68.6741 27.546L68.0311 29.4398L72.1594 30.8416L72.8024 28.9478ZM49.1069 14.2472L26.8236 24.2312L27.6413 26.0564L49.9246 16.0724L49.1069 14.2472ZM25.8743 27.2891L27.292 29.8566L29.0429 28.8898L27.6252 26.3223L25.8743 27.2891ZM29.853 30.716L32.581 29.3926L31.708 27.5932L28.9801 28.9165L29.853 30.716ZM31.1445 28.4929V46.1388H33.1445V28.4929H31.1445ZM31.6995 45.2433L11.9939 55.0357L12.8839 56.8268L32.5895 47.0344L31.6995 45.2433ZM10.9835 57.7762L11.7058 59.6838L13.5762 58.9756L12.8539 57.068L10.9835 57.7762ZM31.1445 46.1388V51.2619H33.1445V46.1388H31.1445ZM31.1445 51.2619V82H33.1445V51.2619H31.1445ZM14.386 60.8332L32.5747 52.1646L31.7143 50.3592L13.5255 59.0278L14.386 60.8332ZM67.3526 28.4929V46.1388H69.3526V28.4929H67.3526ZM67.9244 47.0425L88.613 56.8453L89.4694 55.0379L68.7808 45.2352L67.9244 47.0425ZM88.6421 57.0861L87.9197 58.9942L89.7901 59.7024L90.5125 57.7943L88.6421 57.0861ZM67.3526 46.1388V51.2619H69.3526V46.1388H67.3526ZM67.3526 51.2619V82H69.3526V51.2619H67.3526ZM87.9693 59.0459L68.7651 50.3509L67.9401 52.1728L87.1444 60.8678L87.9693 59.0459ZM23.5838 64.2156H26.1214V62.2156H23.5838V64.2156ZM27.1214 65.2156V73.7385H29.1214V65.2156H27.1214ZM26.1214 74.7385H23.5838V76.7385H26.1214V74.7385ZM22.5838 73.7385V65.2156H20.5838V73.7385H22.5838ZM74.8786 64.2156H77.9191V62.2156H74.8786V64.2156ZM78.9191 65.2156V73.7385H80.9191V65.2156H78.9191ZM77.9191 74.7385H74.8786V76.7385H77.9191V74.7385ZM73.8786 73.7385V65.2156H71.8786V73.7385H73.8786ZM11.7058 59.6838C12.0976 60.7186 13.2674 61.3663 14.386 60.8332L13.5255 59.0278C13.532 59.0247 13.5467 59.02 13.5659 59.02C13.5841 59.02 13.5975 59.0242 13.6046 59.0274C13.6201 59.0345 13.5973 59.0314 13.5762 58.9756L11.7058 59.6838ZM11.9939 55.0357C10.9681 55.5455 10.6089 56.7868 10.9835 57.7762L12.8539 57.068C12.8318 57.0096 12.832 56.942 12.8519 56.8849C12.872 56.8272 12.8962 56.8207 12.8839 56.8268L11.9939 55.0357ZM27.292 29.8566C27.7817 30.7433 28.8642 31.1956 29.853 30.716L28.9801 28.9165C28.986 28.9136 28.9984 28.9094 29.0149 28.9086C29.031 28.9078 29.0445 28.9104 29.0539 28.9137C29.0745 28.921 29.0627 28.9258 29.0429 28.8898L27.292 29.8566ZM26.8236 24.2312C25.6352 24.7636 25.2971 26.2438 25.8743 27.2891L27.6252 26.3223C27.5964 26.2703 27.5868 26.1968 27.6075 26.1257C27.6284 26.0536 27.6585 26.0487 27.6413 26.0564L26.8236 24.2312ZM72.7624 28.8896C72.7435 28.9466 72.719 28.9569 72.7273 28.9522C72.7311 28.9501 72.7416 28.9453 72.7582 28.9436C72.7758 28.9418 72.7919 28.9443 72.8024 28.9478L72.1594 30.8416C73.2787 31.2217 74.3307 30.5151 74.6609 29.5185L72.7624 28.8896ZM73.5609 26.1554C73.5443 26.1481 73.5659 26.1499 73.5873 26.2038C73.6083 26.2571 73.6122 26.3245 73.5917 26.3864L75.4902 27.0154C75.8217 26.0148 75.4186 24.7866 74.3647 24.3241L73.5609 26.1554ZM87.9197 58.9942C87.8988 59.0492 87.8762 59.053 87.8908 59.0462C87.8974 59.0431 87.9104 59.0388 87.9283 59.0386C87.9472 59.0383 87.9621 59.0426 87.9693 59.0459L87.1444 60.8678C88.2579 61.3719 89.4035 60.7234 89.7901 59.7024L87.9197 58.9942ZM51.3852 14.2383C50.6541 13.9174 49.8355 13.9208 49.1069 14.2472L49.9246 16.0724C50.1382 15.9767 50.3678 15.9759 50.5815 16.0697L51.3852 14.2383ZM88.613 56.8453C88.5989 56.8386 88.6229 56.8434 88.6435 56.9013C88.664 56.9584 88.6645 57.0268 88.6421 57.0861L90.5125 57.7943C90.8912 56.7943 90.5194 55.5354 89.4694 55.0379L88.613 56.8453ZM49.9437 22.2979C50.1427 22.2165 50.3544 22.2165 50.5534 22.2979L51.3101 20.4466C50.6261 20.167 49.871 20.167 49.187 20.4466L49.9437 22.2979ZM89.4798 72.3232C89.4798 74.5673 89.0491 76.5501 88.3968 77.9345C87.7078 79.3969 86.9534 79.8615 86.4566 79.8615V81.8615C88.1818 81.8615 89.439 80.4149 90.206 78.787C91.0098 77.081 91.4798 74.7946 91.4798 72.3232H89.4798ZM86.4566 64.7848C86.9534 64.7848 87.7078 65.2495 88.3968 66.7119C89.0491 68.0962 89.4798 70.079 89.4798 72.3232H91.4798C91.4798 69.8517 91.0098 67.5653 90.206 65.8594C89.439 64.2315 88.1818 62.7848 86.4566 62.7848V64.7848ZM16.052 79.8615C15.5553 79.8615 14.8009 79.3969 14.1119 77.9345C13.4596 76.5501 13.0289 74.5673 13.0289 72.3232H11.0289C11.0289 74.7946 11.4988 77.081 12.3026 78.787C13.0697 80.4149 14.3269 81.8615 16.052 81.8615V79.8615ZM13.0289 72.3232C13.0289 70.079 13.4596 68.0962 14.1119 66.7119C14.8009 65.2495 15.5553 64.7848 16.052 64.7848V62.7848C14.3269 62.7848 13.0697 64.2315 12.3026 65.8594C11.4988 67.5653 11.0289 69.8517 11.0289 72.3232H13.0289ZM16.052 64.7848C16.2926 64.7848 16.579 64.8805 16.909 65.164L18.2123 63.6469C17.6106 63.13 16.8785 62.7848 16.052 62.7848V64.7848ZM18.5607 64.4055V58.2124H16.5607V64.4055H18.5607ZM18.5607 82V80.2409H16.5607V82H18.5607ZM18.5607 80.2409V64.4055H16.5607V80.2409H18.5607ZM16.909 79.4824C16.579 79.7659 16.2926 79.8615 16.052 79.8615V81.8615C16.8785 81.8615 17.6106 81.5164 18.2123 80.9994L16.909 79.4824ZM84.8043 66.1643C85.4257 65.1071 86.036 64.7848 86.4566 64.7848V62.7848C84.9745 62.7848 83.8363 63.8643 83.0801 65.1508L84.8043 66.1643ZM84.9422 65.6575V57.9586H82.9422V65.6575H84.9422ZM84.9422 82V78.9888H82.9422V82H84.9422ZM84.9422 78.9888V65.6575H82.9422V78.9888H84.9422ZM86.4566 79.8615C86.036 79.8615 85.4257 79.5392 84.8043 78.4821L83.0801 79.4956C83.8363 80.782 84.9745 81.8615 86.4566 81.8615V79.8615ZM37.6647 32.9082H39.6994V30.9082H37.6647V32.9082ZM40.6994 33.9082V40.7235H42.6994V33.9082H40.6994ZM39.6994 41.7235H37.6647V43.7235H39.6994V41.7235ZM36.6647 40.7235V33.9082H34.6647V40.7235H36.6647ZM49.2312 32.9082H51.2659V30.9082H49.2312V32.9082ZM52.2659 33.9082V40.7235H54.2659V33.9082H52.2659ZM51.2659 41.7235H49.2312V43.7235H51.2659V41.7235ZM48.2312 40.7235V33.9082H46.2312V40.7235H48.2312ZM60.2948 32.9082H62.3295V30.9082H60.2948V32.9082ZM63.3295 33.9082V40.7235H65.3295V33.9082H63.3295ZM62.3295 41.7235H60.2948V43.7235H62.3295V41.7235ZM59.2948 40.7235V33.9082H57.2948V40.7235H59.2948ZM37.6647 48.1434H39.6994V46.1434H37.6647V48.1434ZM40.6994 49.1434V55.9586H42.6994V49.1434H40.6994ZM39.6994 56.9586H37.6647V58.9586H39.6994V56.9586ZM36.6647 55.9586V49.1434H34.6647V55.9586H36.6647ZM49.2312 48.1434H51.2659V46.1434H49.2312V48.1434ZM52.2659 49.1434V55.9586H54.2659V49.1434H52.2659ZM51.2659 56.9586H49.2312V58.9586H51.2659V56.9586ZM48.2312 55.9586V49.1434H46.2312V55.9586H48.2312ZM60.2948 48.1434H62.3295V46.1434H60.2948V48.1434ZM63.3295 49.1434V55.9586H65.3295V49.1434H63.3295ZM62.3295 56.9586H60.2948V58.9586H62.3295V56.9586ZM59.2948 55.9586V49.1434H57.2948V55.9586H59.2948ZM37.6647 64.2156H39.6994V62.2156H37.6647V64.2156ZM40.6994 65.2156V72.0309H42.6994V65.2156H40.6994ZM39.6994 73.0309H37.6647V75.0309H39.6994V73.0309ZM36.6647 72.0309V65.2156H34.6647V72.0309H36.6647ZM60.2948 64.2156H62.3295V62.2156H60.2948V64.2156ZM63.3295 65.2156V72.0309H65.3295V65.2156H63.3295ZM62.3295 73.0309H60.2948V75.0309H62.3295V73.0309ZM59.2948 72.0309V65.2156H57.2948V72.0309H59.2948ZM47.7225 64.2156H53.2775V62.2156H47.7225V64.2156ZM55.2775 83H68.3526V81H55.2775V83ZM32.1445 83H45.7225V81H32.1445V83ZM45.7225 83H55.2775V81H45.7225V83ZM44.7225 65.2156V75.7385H46.7225V65.2156H44.7225ZM44.7225 75.7385V82H46.7225V75.7385H44.7225ZM54.2775 65.2156V75.7385H56.2775V65.2156H54.2775ZM54.2775 75.7385V82H56.2775V75.7385H54.2775ZM45.7225 76.7385H55.2775V74.7385H45.7225V76.7385ZM45.7225 79.9888H55.2775V77.9888H45.7225V79.9888ZM53.2775 64.2156C53.8297 64.2156 54.2775 64.6633 54.2775 65.2156H56.2775C56.2775 63.5587 54.9343 62.2156 53.2775 62.2156V64.2156ZM47.7225 62.2156C46.0657 62.2156 44.7225 63.5587 44.7225 65.2156H46.7225C46.7225 64.6633 47.1703 64.2156 47.7225 64.2156V62.2156ZM60.2948 73.0309C59.7425 73.0309 59.2948 72.5831 59.2948 72.0309H57.2948C57.2948 73.6877 58.6379 75.0309 60.2948 75.0309V73.0309ZM63.3295 72.0309C63.3295 72.5831 62.8818 73.0309 62.3295 73.0309V75.0309C63.9863 75.0309 65.3295 73.6877 65.3295 72.0309H63.3295ZM62.3295 64.2156C62.8818 64.2156 63.3295 64.6633 63.3295 65.2156H65.3295C65.3295 63.5587 63.9863 62.2156 62.3295 62.2156V64.2156ZM60.2948 62.2156C58.6379 62.2156 57.2948 63.5587 57.2948 65.2156H59.2948C59.2948 64.6633 59.7425 64.2156 60.2948 64.2156V62.2156ZM37.6647 73.0309C37.1125 73.0309 36.6647 72.5831 36.6647 72.0309H34.6647C34.6647 73.6877 36.0079 75.0309 37.6647 75.0309V73.0309ZM40.6994 72.0309C40.6994 72.5831 40.2517 73.0309 39.6994 73.0309V75.0309C41.3563 75.0309 42.6994 73.6877 42.6994 72.0309H40.6994ZM39.6994 64.2156C40.2517 64.2156 40.6994 64.6633 40.6994 65.2156H42.6994C42.6994 63.5587 41.3563 62.2156 39.6994 62.2156V64.2156ZM37.6647 62.2156C36.0079 62.2156 34.6647 63.5587 34.6647 65.2156H36.6647C36.6647 64.6633 37.1125 64.2156 37.6647 64.2156V62.2156ZM60.2948 56.9586C59.7425 56.9586 59.2948 56.5109 59.2948 55.9586H57.2948C57.2948 57.6155 58.6379 58.9586 60.2948 58.9586V56.9586ZM63.3295 55.9586C63.3295 56.5109 62.8818 56.9586 62.3295 56.9586V58.9586C63.9863 58.9586 65.3295 57.6155 65.3295 55.9586H63.3295ZM62.3295 48.1434C62.8818 48.1434 63.3295 48.5911 63.3295 49.1434H65.3295C65.3295 47.4865 63.9863 46.1434 62.3295 46.1434V48.1434ZM60.2948 46.1434C58.6379 46.1434 57.2948 47.4865 57.2948 49.1434H59.2948C59.2948 48.5911 59.7425 48.1434 60.2948 48.1434V46.1434ZM49.2312 56.9586C48.6789 56.9586 48.2312 56.5109 48.2312 55.9586H46.2312C46.2312 57.6155 47.5744 58.9586 49.2312 58.9586V56.9586ZM52.2659 55.9586C52.2659 56.5109 51.8182 56.9586 51.2659 56.9586V58.9586C52.9227 58.9586 54.2659 57.6155 54.2659 55.9586H52.2659ZM51.2659 48.1434C51.8182 48.1434 52.2659 48.5911 52.2659 49.1434H54.2659C54.2659 47.4865 52.9228 46.1434 51.2659 46.1434V48.1434ZM49.2312 41.7235C48.6789 41.7235 48.2312 41.2758 48.2312 40.7235H46.2312C46.2312 42.3804 47.5744 43.7235 49.2312 43.7235V41.7235ZM52.2659 40.7235C52.2659 41.2758 51.8182 41.7235 51.2659 41.7235V43.7235C52.9227 43.7235 54.2659 42.3804 54.2659 40.7235H52.2659ZM51.2659 32.9082C51.8182 32.9082 52.2659 33.3559 52.2659 33.9082H54.2659C54.2659 32.2514 52.9228 30.9082 51.2659 30.9082V32.9082ZM49.2312 30.9082C47.5744 30.9082 46.2312 32.2514 46.2312 33.9082H48.2312C48.2312 33.3559 48.6789 32.9082 49.2312 32.9082V30.9082ZM37.6647 41.7235C37.1125 41.7235 36.6647 41.2758 36.6647 40.7235H34.6647C34.6647 42.3804 36.0079 43.7235 37.6647 43.7235V41.7235ZM40.6994 40.7235C40.6994 41.2758 40.2517 41.7235 39.6994 41.7235V43.7235C41.3563 43.7235 42.6994 42.3804 42.6994 40.7235H40.6994ZM49.2312 46.1434C47.5744 46.1434 46.2312 47.4865 46.2312 49.1434H48.2312C48.2312 48.5911 48.6789 48.1434 49.2312 48.1434V46.1434ZM74.8786 74.7385C74.3263 74.7385 73.8786 74.2908 73.8786 73.7385H71.8786C71.8786 75.3954 73.2218 76.7385 74.8786 76.7385V74.7385ZM39.6994 32.9082C40.2517 32.9082 40.6994 33.3559 40.6994 33.9082H42.6994C42.6994 32.2514 41.3563 30.9082 39.6994 30.9082V32.9082ZM77.9191 64.2156C78.4714 64.2156 78.9191 64.6633 78.9191 65.2156H80.9191C80.9191 63.5587 79.5759 62.2156 77.9191 62.2156V64.2156ZM40.6994 55.9586C40.6994 56.5109 40.2517 56.9586 39.6994 56.9586V58.9586C41.3563 58.9586 42.6994 57.6155 42.6994 55.9586H40.6994ZM37.6647 56.9586C37.1125 56.9586 36.6647 56.5109 36.6647 55.9586H34.6647C34.6647 57.6155 36.0079 58.9586 37.6647 58.9586V56.9586ZM78.9191 73.7385C78.9191 74.2908 78.4714 74.7385 77.9191 74.7385V76.7385C79.5759 76.7385 80.9191 75.3954 80.9191 73.7385H78.9191ZM37.6647 30.9082C36.0079 30.9082 34.6647 32.2514 34.6647 33.9082H36.6647C36.6647 33.3559 37.1125 32.9082 37.6647 32.9082V30.9082ZM74.8786 62.2156C73.2218 62.2156 71.8786 63.5587 71.8786 65.2156H73.8786C73.8786 64.6633 74.3263 64.2156 74.8786 64.2156V62.2156ZM39.6994 48.1434C40.2517 48.1434 40.6994 48.5911 40.6994 49.1434H42.6994C42.6994 47.4865 41.3563 46.1434 39.6994 46.1434V48.1434ZM23.5838 74.7385C23.0315 74.7385 22.5838 74.2908 22.5838 73.7385H20.5838C20.5838 75.3954 21.927 76.7385 23.5838 76.7385V74.7385ZM37.6647 46.1434C36.0079 46.1434 34.6647 47.4865 34.6647 49.1434H36.6647C36.6647 48.5911 37.1125 48.1434 37.6647 48.1434V46.1434ZM27.1214 73.7385C27.1214 74.2908 26.6737 74.7385 26.1214 74.7385V76.7385C27.7782 76.7385 29.1214 75.3954 29.1214 73.7385H27.1214ZM60.2948 41.7235C59.7425 41.7235 59.2948 41.2758 59.2948 40.7235H57.2948C57.2948 42.3804 58.6379 43.7235 60.2948 43.7235V41.7235ZM26.1214 64.2156C26.6737 64.2156 27.1214 64.6633 27.1214 65.2156H29.1214C29.1214 63.5587 27.7782 62.2156 26.1214 62.2156V64.2156ZM63.3295 40.7235C63.3295 41.2758 62.8818 41.7235 62.3295 41.7235V43.7235C63.9863 43.7235 65.3295 42.3804 65.3295 40.7235H63.3295ZM23.5838 62.2156C21.927 62.2156 20.5838 63.5587 20.5838 65.2156H22.5838C22.5838 64.6633 23.0315 64.2156 23.5838 64.2156V62.2156ZM62.3295 32.9082C62.8818 32.9082 63.3295 33.3559 63.3295 33.9082H65.3295C65.3295 32.2514 63.9863 30.9082 62.3295 30.9082V32.9082ZM60.2948 30.9082C58.6379 30.9082 57.2948 32.2514 57.2948 33.9082H59.2948C59.2948 33.3559 59.7425 32.9082 60.2948 32.9082V30.9082Z" fill="black"/>
    </symbol> 
    <symbol id="apartment" viewBox="0 0 100 100" xmlns="http://www.w3.org/2000/svg">
        <path d="M85 71C88.3137 71 91 68.3137 91 65C91 61.6863 88.3137 59 85 59C84.8316 59 84.6649 59.0069 84.5 59.0205C81.4202 59.2746 79 61.8547 79 65C79 66.2267 79.3682 67.3675 80 68.3178C80.9882 69.8041 82.6214 70.8245 84.5 70.9795C84.6649 70.9931 84.8316 71 85 71Z" fill="#869E93"/>
        <path d="M22.9733 67.5198C22.991 67.349 23 67.1755 23 67C23 66.0893 22.7565 65.2354 22.3311 64.5C21.4666 63.0055 19.8507 62 18 62C16.0209 62 14.3104 63.1499 13.5 64.8179C13.1797 65.4772 13.0001 66.2175 13 66.9996C11.7856 67.9118 11 69.3642 11 71C11 72.8507 12.0055 74.4666 13.5 75.3311C14.2354 75.7565 15.0893 76 16 76C16.7111 76 17.3875 75.8516 18 75.584C18.5181 75.3576 18.9904 75.046 19.3992 74.6668C19.8894 74.8811 20.4308 75 21 75C23.2091 75 25 73.2091 25 71C25 70.2969 24.8186 69.6361 24.5 69.062C24.1428 68.4182 23.6131 67.8834 22.9733 67.5198Z" fill="#869E93"/>
        <path d="M7 81C6.44772 81 6 81.4477 6 82C6 82.5523 6.44772 83 7 83V81ZM93.5 83C94.0523 83 94.5 82.5523 94.5 82C94.5 81.4477 94.0523 81 93.5 81V83ZM79 65.5C79.5523 65.5 80 65.0523 80 64.5C80 63.9477 79.5523 63.5 79 63.5V65.5ZM22.9733 67.5198L21.9786 67.4171L21.9115 68.0666L22.4793 68.3893L22.9733 67.5198ZM19.3992 74.6668L19.7998 73.7505L19.1995 73.4881L18.7192 73.9336L19.3992 74.6668ZM16 71C16.5523 71 17 70.5523 17 70C17 69.4477 16.5523 69 16 69V71ZM19 73C19 72.4477 18.5523 72 18 72C17.4477 72 17 72.4477 17 73H19ZM86 67.5C86 66.9477 85.5523 66.5 85 66.5C84.4477 66.5 84 66.9477 84 67.5H86ZM80 68.3178L80.8327 67.7641L80 68.3178ZM84.5 59.0205L84.5822 60.0172L84.5 59.0205ZM13.5 64.8179L14.3995 65.2549L13.5 64.8179ZM13.5 68.494L14.3357 67.9448L13.5 68.494ZM13.5 75.3311L14.0007 74.4655L13.5 75.3311ZM22.3311 64.5L21.4655 65.0007L22.3311 64.5ZM39 37.5V82H41V37.5H39ZM17.5 34.5H28.5V32.5H17.5V34.5ZM29.5 33.5V21H27.5V33.5H29.5ZM32.5 18H70.5V16H32.5V18ZM54 82V50.5H52V82H54ZM7 83H93.5V81H7V83ZM57 47.5H74.5V45.5H57V47.5ZM74.5 47.5H80.5V45.5H74.5V47.5ZM73.5 21V46.5H75.5V21H73.5ZM18.5 38.5H23.5V36.5H18.5V38.5ZM23.5 38.5V45H25.5V38.5H23.5ZM23.5 45H18.5V47H23.5V45ZM18.5 45V38.5H16.5V45H18.5ZM18.5 52H23.5V50H18.5V52ZM23.5 52V58.5H25.5V52H23.5ZM23.5 58.5H18.5V60.5H23.5V58.5ZM18.5 58.5V52H16.5V58.5H18.5ZM34 22H38V20H34V22ZM38 22V28.5H40V22H38ZM38 28.5H34V30.5H38V28.5ZM34 28.5V22H32V28.5H34ZM44.5 22H48.5V20H44.5V22ZM48.5 22V28.5H50.5V22H48.5ZM48.5 28.5H44.5V30.5H48.5V28.5ZM44.5 28.5V22H42.5V28.5H44.5ZM55 22H59V20H55V22ZM59 22V28.5H61V22H59ZM59 28.5H55V30.5H59V28.5ZM55 28.5V22H53V28.5H55ZM65.5 22H69.5V20H65.5V22ZM69.5 22V28.5H71.5V22H69.5ZM69.5 28.5H65.5V30.5H69.5V28.5ZM65.5 28.5V22H63.5V28.5H65.5ZM44.5 34.5H48.5V32.5H44.5V34.5ZM48.5 34.5V41H50.5V34.5H48.5ZM48.5 41H44.5V43H48.5V41ZM44.5 41V34.5H42.5V41H44.5ZM55 34.5H59V32.5H55V34.5ZM59 34.5V41H61V34.5H59ZM59 41H55V43H59V41ZM55 41V34.5H53V41H55ZM65.5 34.5H69.5V32.5H65.5V34.5ZM69.5 34.5V41H71.5V34.5H69.5ZM69.5 41H65.5V43H69.5V41ZM65.5 41V34.5H63.5V41H65.5ZM44.5 47.5H48.5V45.5H44.5V47.5ZM48.5 47.5V54H50.5V47.5H48.5ZM48.5 54H44.5V56H48.5V54ZM44.5 54V47.5H42.5V54H44.5ZM44.5 60.5H48.5V58.5H44.5V60.5ZM48.5 60.5V67H50.5V60.5H48.5ZM48.5 67H44.5V69H48.5V67ZM44.5 67V60.5H42.5V67H44.5ZM72 52H79V50H72V52ZM79 52V58.5H81V52H79ZM79 58.5H72V60.5H79V58.5ZM72 58.5V52H70V58.5H72ZM72 65.5H79V63.5H72V65.5ZM79 72H72V74H79V72ZM72 72V65.5H70V72H72ZM58 52H65V50H58V52ZM65 52V58.5H67V52H65ZM65 58.5H58V60.5H65V58.5ZM58 58.5V52H56V58.5H58ZM58 65.5H65V63.5H58V65.5ZM65 65.5V72H67V65.5H65ZM65 72H58V74H65V72ZM58 72V65.5H56V72H58ZM30 38.5H35V36.5H30V38.5ZM35 38.5V45H37V38.5H35ZM35 45H30V47H35V45ZM30 45V38.5H28V45H30ZM30 52H35V50H30V52ZM35 52V58.5H37V52H35ZM35 58.5H30V60.5H35V58.5ZM30 58.5V52H28V58.5H30ZM30 65.5H35V63.5H30V65.5ZM35 65.5V72H37V65.5H35ZM35 72H30V74H35V72ZM30 72V65.5H28V72H30ZM14.5 83H40V81H14.5V83ZM40 83H53V81H40V83ZM53 83H83.5V81H53V83ZM30 72H28C28 73.1046 28.8954 74 30 74V72ZM35 72V74C36.1046 74 37 73.1046 37 72H35ZM35 65.5H37C37 64.3954 36.1046 63.5 35 63.5V65.5ZM30 63.5C28.8954 63.5 28 64.3954 28 65.5H30V63.5ZM30 58.5H28C28 59.6046 28.8954 60.5 30 60.5V58.5ZM35 58.5V60.5C36.1046 60.5 37 59.6046 37 58.5H35ZM35 52H37C37 50.8954 36.1046 50 35 50V52ZM30 50C28.8954 50 28 50.8954 28 52H30V50ZM30 45H28C28 46.1046 28.8954 47 30 47V45ZM35 45V47C36.1046 47 37 46.1046 37 45H35ZM35 38.5H37C37 37.3954 36.1046 36.5 35 36.5V38.5ZM30 36.5C28.8954 36.5 28 37.3954 28 38.5H30V36.5ZM58 72H56C56 73.1046 56.8954 74 58 74V72ZM65 72V74C66.1046 74 67 73.1046 67 72H65ZM65 65.5H67C67 64.3954 66.1046 63.5 65 63.5V65.5ZM58 63.5C56.8954 63.5 56 64.3954 56 65.5H58V63.5ZM58 58.5H56C56 59.6046 56.8954 60.5 58 60.5V58.5ZM65 58.5V60.5C66.1046 60.5 67 59.6046 67 58.5H65ZM65 52H67C67 50.8954 66.1046 50 65 50V52ZM58 50C56.8954 50 56 50.8954 56 52H58V50ZM72 72H70C70 73.1046 70.8954 74 72 74V72ZM79 72V74C80.1046 74 81 73.1046 81 72H79ZM72 63.5C70.8954 63.5 70 64.3954 70 65.5H72V63.5ZM72 58.5H70C70 59.6046 70.8954 60.5 72 60.5V58.5ZM79 58.5V60.5C80.1046 60.5 81 59.6046 81 58.5H79ZM79 52H81C81 50.8954 80.1046 50 79 50V52ZM72 50C70.8954 50 70 50.8954 70 52H72V50ZM44.5 67H42.5C42.5 68.1046 43.3954 69 44.5 69V67ZM48.5 67V69C49.6046 69 50.5 68.1046 50.5 67H48.5ZM48.5 60.5H50.5C50.5 59.3954 49.6046 58.5 48.5 58.5V60.5ZM44.5 58.5C43.3954 58.5 42.5 59.3954 42.5 60.5H44.5V58.5ZM44.5 54H42.5C42.5 55.1046 43.3954 56 44.5 56V54ZM48.5 54V56C49.6046 56 50.5 55.1046 50.5 54H48.5ZM48.5 47.5H50.5C50.5 46.3954 49.6046 45.5 48.5 45.5V47.5ZM44.5 45.5C43.3954 45.5 42.5 46.3954 42.5 47.5H44.5V45.5ZM65.5 41H63.5C63.5 42.1046 64.3954 43 65.5 43V41ZM69.5 34.5H71.5C71.5 33.3954 70.6046 32.5 69.5 32.5V34.5ZM65.5 32.5C64.3954 32.5 63.5 33.3954 63.5 34.5H65.5V32.5ZM55 32.5C53.8954 32.5 53 33.3954 53 34.5H55V32.5ZM44.5 41H42.5C42.5 42.1046 43.3954 43 44.5 43V41ZM48.5 41V43C49.6046 43 50.5 42.1046 50.5 41H48.5ZM48.5 34.5H50.5C50.5 33.3954 49.6046 32.5 48.5 32.5V34.5ZM44.5 32.5C43.3954 32.5 42.5 33.3954 42.5 34.5H44.5V32.5ZM65.5 28.5H63.5C63.5 29.6046 64.3954 30.5 65.5 30.5V28.5ZM69.5 28.5V30.5C70.6046 30.5 71.5 29.6046 71.5 28.5H69.5ZM69.5 22H71.5C71.5 20.8954 70.6046 20 69.5 20V22ZM65.5 20C64.3954 20 63.5 20.8954 63.5 22H65.5V20ZM55 28.5H53C53 29.6046 53.8954 30.5 55 30.5V28.5ZM59 28.5V30.5C60.1046 30.5 61 29.6046 61 28.5H59ZM59 22H61C61 20.8954 60.1046 20 59 20V22ZM55 20C53.8954 20 53 20.8954 53 22H55V20ZM44.5 28.5H42.5C42.5 29.6046 43.3954 30.5 44.5 30.5V28.5ZM48.5 28.5V30.5C49.6046 30.5 50.5 29.6046 50.5 28.5H48.5ZM48.5 22H50.5C50.5 20.8954 49.6046 20 48.5 20V22ZM44.5 20C43.3954 20 42.5 20.8954 42.5 22H44.5V20ZM34 28.5H32C32 29.6046 32.8954 30.5 34 30.5V28.5ZM38 22H40C40 20.8954 39.1046 20 38 20V22ZM34 20C32.8954 20 32 20.8954 32 22H34V20ZM18.5 58.5H16.5C16.5 59.6046 17.3954 60.5 18.5 60.5V58.5ZM23.5 58.5V60.5C24.6046 60.5 25.5 59.6046 25.5 58.5H23.5ZM23.5 52H25.5C25.5 50.8954 24.6046 50 23.5 50V52ZM18.5 50C17.3954 50 16.5 50.8954 16.5 52H18.5V50ZM18.5 45H16.5C16.5 46.1046 17.3954 47 18.5 47V45ZM23.5 38.5H25.5C25.5 37.3954 24.6046 36.5 23.5 36.5V38.5ZM18.5 36.5C17.3954 36.5 16.5 37.3954 16.5 38.5H18.5V36.5ZM83.5 81V83C84.6046 83 85.5 82.1046 85.5 81H83.5ZM85.5 50.5C85.5 47.7386 83.2614 45.5 80.5 45.5V47.5C82.1569 47.5 83.5 48.8431 83.5 50.5H85.5ZM54 50.5C54 48.8431 55.3431 47.5 57 47.5V45.5C54.2386 45.5 52 47.7386 52 50.5H54ZM55 41H53C53 42.1046 53.8954 43 55 43V41ZM41 37.5C41 34.7386 38.7614 32.5 36 32.5V34.5C37.6569 34.5 39 35.8431 39 37.5H41ZM70.5 18C72.1569 18 73.5 19.3431 73.5 21H75.5C75.5 18.2386 73.2614 16 70.5 16V18ZM59 41V43C60.1046 43 61 42.1046 61 41H59ZM14.5 37.5C14.5 35.8431 15.8431 34.5 17.5 34.5V32.5C14.7386 32.5 12.5 34.7386 12.5 37.5H14.5ZM23.5 45V47C24.6046 47 25.5 46.1046 25.5 45H23.5ZM38 28.5V30.5C39.1046 30.5 40 29.6046 40 28.5H38ZM69.5 41V43C70.6046 43 71.5 42.1046 71.5 41H69.5ZM29.5 21C29.5 19.3431 30.8431 18 32.5 18V16C29.7386 16 27.5 18.2386 27.5 21H29.5ZM23.5 65.5H25.5C25.5 64.3954 24.6046 63.5 23.5 63.5V65.5ZM59 34.5H61C61 33.3954 60.1046 32.5 59 32.5V34.5ZM12.5 81C12.5 82.1046 13.3954 83 14.5 83V81H12.5ZM23.968 67.6226C23.9892 67.4176 24 67.2099 24 67H22C22 67.1412 21.9927 67.2803 21.9786 67.4171L23.968 67.6226ZM21 76C23.7614 76 26 73.7614 26 71H24C24 72.6569 22.6569 74 21 74V76ZM18.9986 75.5831C19.6127 75.8516 20.2904 76 21 76V74C20.5713 74 20.166 73.9107 19.7998 73.7505L18.9986 75.5831ZM12 71C12 69.692 12.6268 68.5307 13.6006 67.7992L12.3994 66.2001C10.9443 67.293 10 69.0364 10 71H12ZM16 77C16.8515 77 17.664 76.822 18.4004 76.5003L17.5996 74.6676C17.111 74.8811 16.5707 75 16 75V77ZM18.4004 76.5003C19.0227 76.2284 19.5893 75.8544 20.0792 75.4L18.7192 73.9336C18.3916 74.2375 18.0135 74.4868 17.5996 74.6676L18.4004 76.5003ZM17 73V75.584H19V73H17ZM17 75.584V82.5H19V75.584H17ZM90 65C90 67.7614 87.7614 70 85 70V72C88.866 72 92 68.866 92 65H90ZM85 60C87.7614 60 90 62.2386 90 65H92C92 61.134 88.866 58 85 58V60ZM84 67.5V82.5H86V67.5H84ZM28.5 34.5H36V32.5H28.5V34.5ZM80.8327 67.7641C80.3066 66.9728 80 66.0237 80 65H78C78 66.4298 78.4297 67.7622 79.1673 68.8715L80.8327 67.7641ZM79 68.3178V72H81V68.3178H79ZM80 65C80 62.3794 82.0168 60.2288 84.5822 60.0172L84.4178 58.0239C80.8237 58.3204 78 61.3299 78 65H80ZM84.5822 60.0172C84.7198 60.0058 84.8591 60 85 60V58C84.8041 58 84.61 58.0081 84.4178 58.0239L84.5822 60.0172ZM83.5 50.5V59.0205H85.5V50.5H83.5ZM83.5 70.9795V81H85.5V70.9795H83.5ZM85 70C84.8591 70 84.7198 69.9942 84.5822 69.9828L84.4178 71.9761C84.61 71.9919 84.8041 72 85 72V70ZM84.5822 69.9828C83.0194 69.8539 81.6578 69.0051 80.8327 67.7641L79.1673 68.8715C80.3186 70.603 82.2234 71.795 84.4178 71.9761L84.5822 69.9828ZM18 61C15.6236 61 13.5718 62.3816 12.6005 64.381L14.3995 65.2549C15.0489 63.9181 16.4182 63 18 63V61ZM12.6005 64.381C12.2155 65.1734 12.0001 66.0628 12 66.9996L14 66.9997C14 66.3721 14.1439 65.781 14.3995 65.2549L12.6005 64.381ZM14.5 64.8179V37.5H12.5V64.8179H14.5ZM12 66.9996C12 67.728 12.2723 68.4466 12.6643 69.0431L14.3357 67.9448C14.0998 67.5857 14 67.2435 14 66.9996H12ZM12.6643 69.0431C13.3341 70.0625 14.5468 71 16 71V69C15.4197 69 14.7605 68.5913 14.3357 67.9448L12.6643 69.0431ZM14.5 81V75.3311H12.5V81H14.5ZM16 75C15.2698 75 14.5881 74.8052 14.0007 74.4655L12.9993 76.1967C13.8828 76.7078 14.9088 77 16 77V75ZM14.0007 74.4655C12.8025 73.7724 12 72.4793 12 71H10C10 73.2221 11.2085 75.1608 12.9993 76.1967L14.0007 74.4655ZM24 67C24 65.9088 23.7078 64.8828 23.1967 63.9993L21.4655 65.0007C21.8052 65.5881 22 66.2698 22 67H24ZM23.1967 63.9993C22.1608 62.2085 20.2221 61 18 61V63C19.4793 63 20.7724 63.8025 21.4655 65.0007L23.1967 63.9993ZM22.3311 65.5H23.5V63.5H22.3311V65.5ZM23.5 65.5V68.75H25.5V65.5H23.5ZM23.5 68.75V69.062H25.5V68.75H23.5ZM26 71C26 70.1228 25.7732 69.2956 25.3744 68.5768L23.6256 69.5472C23.8639 69.9767 24 70.4709 24 71H26ZM25.3744 68.5768C24.928 67.7723 24.2667 67.1046 23.4673 66.6504L22.4793 68.3893C22.9595 68.6621 23.3575 69.0641 23.6256 69.5472L25.3744 68.5768Z" fill="black"/>
    </symbol>
    <symbol id="single-family" viewBox="0 0 100 100" xmlns="http://www.w3.org/2000/svg">
        <path d="M90.5 86C94.2305 86 94 82.6421 94 78.5C94 75.0098 92.8874 72.0764 91.3808 71.2395C91.0994 71.0832 90.8042 71 90.5 71C90.309 71 90.1215 71.0328 89.9388 71.0959C88.2726 71.6714 87 74.7672 87 78.5C87 79.0057 87 79.4998 87.0064 79.9774C87.0202 81.0112 87.0638 81.9682 87.2018 82.8011C87.5224 84.7355 88.3521 86 90.5 86Z" fill="#869E93"/>
        <path d="M88.5 68C86.567 68 85 71.3579 85 75.5C85 77.1002 85 78.5834 85.2018 79.8011C85.4476 81.2842 85.9927 82.3736 87.2018 82.8011C87.0638 81.9682 87.0202 81.0112 87.0064 79.9774C87 79.4998 87 79.0057 87 78.5C87 74.7672 88.2726 71.6714 89.9388 71.0959C90.1215 71.0328 90.309 71 90.5 71C90.8042 71 91.0994 71.0832 91.3808 71.2395C90.9101 69.7808 90.2043 68.697 89.3808 68.2395C89.0994 68.0832 88.8042 68 88.5 68Z" fill="#869E93"/>
        <path d="M86.5 65C86.1525 65 85.8169 65.1085 85.5 65.3106C84.0543 66.2326 83 69.1025 83 72.5C83 73.3766 83 74.2181 83.0332 75C83.1343 77.384 83.5438 79.2149 85.2018 79.8011C85 78.5834 85 77.1002 85 75.5C85 71.3579 86.567 68 88.5 68C88.8042 68 89.0994 68.0832 89.3808 68.2395C88.7493 66.2823 87.6945 65 86.5 65Z" fill="#869E93"/>
        <path d="M14.5028 86C10.7723 86 11.0028 82.6421 11.0028 78.5C11.0028 77.2359 11.1487 76.0449 11.4065 75C11.8604 73.16 12.661 71.7733 13.622 71.2395C13.9034 71.0832 14.1986 71 14.5028 71C14.6938 71 14.8813 71.0328 15.064 71.0959C16.7302 71.6714 18.0028 74.7672 18.0028 78.5C18.0028 79.0057 18.0028 79.4998 17.9964 79.9774C17.9826 81.0112 17.939 81.9682 17.801 82.8011C17.4804 84.7355 16.6506 86 14.5028 86Z" fill="#869E93"/>
        <path d="M16.5028 68C18.4358 68 20.0028 71.3579 20.0028 75.5C20.0028 77.1002 20.0028 78.5834 19.801 79.8011C19.5552 81.2842 19.0101 82.3736 17.801 82.8011C17.939 81.9682 17.9826 81.0112 17.9964 79.9774C18.0028 79.4998 18.0028 79.0057 18.0028 78.5C18.0028 74.7672 16.7302 71.6714 15.064 71.0959C14.8813 71.0328 14.6938 71 14.5028 71C14.1986 71 13.9034 71.0832 13.622 71.2395C14.0927 69.7808 14.7984 68.697 15.622 68.2395C15.9034 68.0832 16.1986 68 16.5028 68Z" fill="#869E93"/>
        <path d="M18.5028 65C18.565 65 18.6269 65.0035 18.6883 65.0104C20.535 65.217 22.0028 68.4912 22.0028 72.5C22.0028 73.3766 22.0028 74.2181 21.9696 75C21.8685 77.384 21.459 79.2149 19.801 79.8011C20.0028 78.5834 20.0028 77.1002 20.0028 75.5C20.0028 71.3579 18.4358 68 16.5028 68C16.1986 68 15.9034 68.0832 15.622 68.2395C16.2535 66.2823 17.3083 65 18.5028 65Z" fill="#869E93"/>
        <path d="M7 74C6.44772 74 6 74.4477 6 75C6 75.5523 6.44772 76 7 76V74ZM59.5617 84.8457C59.7526 85.3639 60.3275 85.6293 60.8457 85.4383C61.3639 85.2474 61.6293 84.6725 61.4383 84.1543L59.5617 84.8457ZM45 75V74H44.3027L44.0617 74.6543L45 75ZM40.5617 84.1543C40.3707 84.6725 40.6361 85.2474 41.1543 85.4383C41.6725 85.6293 42.2474 85.3639 42.4383 84.8457L40.5617 84.1543ZM13 53.5H12V54.5H13V53.5ZM13 48L12.0745 47.6214L12 47.8034V48H13ZM89.5 48H90.5V47.8661L90.4648 47.7369L89.5 48ZM89.5 53.5V54.5H90.5V53.5H89.5ZM27 29.5L26.2548 28.8332L26 29.1179V29.5H27ZM43.5 29.5H44.5V29.135L44.2649 28.8559L43.5 29.5ZM59.5 29.5L58.7548 28.8332L58.5 29.1179V29.5H59.5ZM76 29.5H77V29.135L76.7649 28.8559L76 29.5ZM66 57.5C65.4477 57.5 65 57.9477 65 58.5C65 59.0523 65.4477 59.5 66 59.5V57.5ZM73.5 59.5C74.0523 59.5 74.5 59.0523 74.5 58.5C74.5 57.9477 74.0523 57.5 73.5 57.5V59.5ZM40.5526 26L39.7877 26.6441L39.7877 26.6441L40.5526 26ZM62.6316 26L63.3768 26.6668L63.3768 26.6668L62.6316 26ZM39.5 37.5V38.5H40.5V37.5H39.5ZM31 37.5H30V38.5H31V37.5ZM72.25 37.5V38.5H73.25V37.5H72.25ZM63.75 37.5H62.75V38.5H63.75V37.5ZM33.9637 21.717L33.2185 21.0502L33.2185 21.0502L33.9637 21.717ZM36.9841 21.7623L37.749 21.1182L37.749 21.1182L36.9841 21.7623ZM21.4916 27.2427L22.4172 27.6214L21.4916 27.2427ZM66.4637 21.717L65.7185 21.0502L65.7185 21.0502L66.4637 21.717ZM69.4841 21.7623L70.249 21.1182L70.249 21.1182L69.4841 21.7623ZM83.9019 27.4738L84.8667 27.2107L84.8667 27.2107L83.9019 27.4738ZM85.2018 79.8011L86.1883 79.6376L85.2018 79.8011ZM87.2018 82.8011L88.1883 82.6376L87.2018 82.8011ZM89.9388 71.0959L90.2652 72.0411L89.9388 71.0959ZM87.0064 79.9774L88.0063 79.9641L87.0064 79.9774ZM13.622 71.2395L14.1076 72.1137L13.622 71.2395ZM19.801 79.8011L18.8144 79.6376L19.801 79.8011ZM17.801 82.8011L16.8144 82.6376L17.801 82.8011ZM15.064 71.0959L14.7376 72.0411L15.064 71.0959ZM17.9964 79.9774L16.9965 79.9641L17.9964 79.9774ZM18.6883 65.0104L18.5771 66.0042L18.6883 65.0104ZM11.4065 75L12.3774 75.2395L12.3774 75.2395L11.4065 75ZM83.0332 75L84.0323 74.9576L83.0332 75ZM56.0617 75.3457L59.5617 84.8457L61.4383 84.1543L57.9383 74.6543L56.0617 75.3457ZM45 76H57V74H45V76ZM44.0617 74.6543L40.5617 84.1543L42.4383 84.8457L45.9383 75.3457L44.0617 74.6543ZM18.6883 52.5H13V54.5H18.6883V52.5ZM14 53.5V48H12V53.5H14ZM13 49H89.5V47H13V49ZM88.5 48V53.5H90.5V48H88.5ZM89.5 52.5H85.5V54.5H89.5V52.5ZM13.9255 48.3786L22.4172 27.6214L20.5661 26.8641L12.0745 47.6214L13.9255 48.3786ZM82.9372 27.7369L88.5352 48.2631L90.4648 47.7369L84.8667 27.2107L82.9372 27.7369ZM28 41.5V29.5H26V41.5H28ZM42.5 29.5V41.5H44.5V29.5H42.5ZM43.5 40.5H23.5V42.5H43.5V40.5ZM43.5 42.5H46.5V40.5H43.5V42.5ZM60.5 41.5V29.5H58.5V41.5H60.5ZM75 29.5V41.5H77V29.5H75ZM76 40.5H59.5V42.5H76V40.5ZM59.5 40.5H56V42.5H59.5V40.5ZM76 42.5H79V40.5H76V42.5ZM18.6883 54.5H25V52.5H18.6883V54.5ZM24 53.5V67.5H26V53.5H24ZM43 67.5V53.5H41V67.5H43ZM25 54.5H33.5V52.5H25V54.5ZM33.5 54.5H42V52.5H33.5V54.5ZM26 69.5H33.5V67.5H26V69.5ZM33.5 69.5H41V67.5H33.5V69.5ZM32.5 53.5V68.5H34.5V53.5H32.5ZM47 63V75H49V63H47ZM49 63H54V61H49V63ZM48 76H55V74H48V76ZM55 76H57V74H55V76ZM55 74H45V76H55V74ZM54 63V75H56V63H54ZM42 54.5H60.5V52.5H42V54.5ZM57 76H60.5V74H57V76ZM59.5 53.5V75H61.5V53.5H59.5ZM60.5 54.5H79V52.5H60.5V54.5ZM79 54.5H85.5V52.5H79V54.5ZM60.5 76H79V74H60.5V76ZM78 53.5V75H80V53.5H78ZM66 59.5H73.5V57.5H66V59.5ZM27.7452 30.1668L30.8768 26.6668L29.3863 25.3332L26.2548 28.8332L27.7452 30.1668ZM30.8768 26.6668L34.709 22.3838L33.2185 21.0502L29.3863 25.3332L30.8768 26.6668ZM23.3427 27H30.1316V25H23.3427V27ZM36.2191 22.4065L39.7877 26.6441L41.3175 25.3559L37.749 21.1182L36.2191 22.4065ZM39.7877 26.6441L42.7351 30.1441L44.2649 28.8559L41.3175 25.3559L39.7877 26.6441ZM40.5526 27H62.6316V25H40.5526V27ZM60.2452 30.1668L63.3768 26.6668L61.8863 25.3332L58.7548 28.8332L60.2452 30.1668ZM63.3768 26.6668L67.209 22.3838L65.7185 21.0502L61.8863 25.3332L63.3768 26.6668ZM73.0526 27H81.9724V25H73.0526V27ZM68.7191 22.4064L72.2877 26.6441L73.8175 25.3559L70.249 21.1182L68.7191 22.4064ZM72.2877 26.6441L75.2351 30.1441L76.7649 28.8559L73.8175 25.3559L72.2877 26.6441ZM38.5 31V37.5H40.5V31H38.5ZM32 37.5V31H30V37.5H32ZM32 31H35.25V29H32V31ZM35.25 31H38.5V29H35.25V31ZM39.5 36.5H35.25V38.5H39.5V36.5ZM35.25 36.5H31V38.5H35.25V36.5ZM34.25 30V37.5H36.25V30H34.25ZM71.25 31V37.5H73.25V31H71.25ZM64.75 37.5V31H62.75V37.5H64.75ZM64.75 31H68V29H64.75V31ZM68 31H71.25V29H68V31ZM72.25 36.5H68V38.5H72.25V36.5ZM68 36.5H63.75V38.5H68V36.5ZM67 30V37.5H69V30H67ZM73.25 31C73.25 29.8954 72.3546 29 71.25 29V31H73.25ZM64.75 31V29C63.6454 29 62.75 29.8954 62.75 31H64.75ZM32 31V29C30.8954 29 30 29.8954 30 31H32ZM54 63H56C56 61.8954 55.1046 61 54 61V63ZM41 67.5V69.5C42.1046 69.5 43 68.6046 43 67.5H41ZM24 67.5C24 68.6046 24.8954 69.5 26 69.5V67.5H24ZM40.5 31C40.5 29.8954 39.6046 29 38.5 29V31V31H40.5ZM34.709 22.3838C35.1145 21.9305 35.8274 21.9412 36.2191 22.4065L37.749 21.1182C36.5737 19.7225 34.4351 19.6905 33.2185 21.0502L34.709 22.3838ZM49 63V61C47.8954 61 47 61.8954 47 63H49ZM22.4172 27.6214C22.5709 27.2455 22.9366 27 23.3427 27V25C22.1245 25 21.0273 25.7366 20.5661 26.8641L22.4172 27.6214ZM67.209 22.3838C67.6145 21.9305 68.3274 21.9412 68.7191 22.4064L70.249 21.1182C69.0737 19.7225 66.9351 19.6905 65.7185 21.0502L67.209 22.3838ZM84.8667 27.2107C84.5107 25.9055 83.3253 25 81.9724 25V27C82.4234 27 82.8185 27.3018 82.9372 27.7369L84.8667 27.2107ZM86 75.5C86 73.5414 86.3725 71.8169 86.9313 70.6196C87.528 69.341 88.1528 69 88.5 69V67C86.9142 67 85.789 68.3379 85.1189 69.7738C84.411 71.2909 84 73.3165 84 75.5H86ZM93 78.5C93 79.5575 93.0141 80.5083 92.9786 81.3785C92.943 82.2486 92.8593 82.9573 92.6914 83.515C92.5268 84.0615 92.3007 84.3993 92.0184 84.6124C91.7366 84.8249 91.2839 85 90.5 85V87C91.5814 87 92.4987 86.7554 93.223 86.2089C93.9466 85.6629 94.3623 84.9023 94.6065 84.0916C94.8472 83.292 94.9391 82.3846 94.9769 81.4602C95.0147 80.5358 95 79.5135 95 78.5H93ZM90.5 72C90.6152 72 90.7447 72.0301 90.8952 72.1137L91.8664 70.3653C91.4541 70.1363 90.9933 70 90.5 70V72ZM90.8952 72.1137C91.3385 72.3599 91.882 73.032 92.3163 74.2185C92.7368 75.367 93 76.8543 93 78.5H95C95 76.6556 94.707 74.931 94.1945 73.531C93.6959 72.1691 92.9298 70.956 91.8664 70.3653L90.8952 72.1137ZM88.5 69C88.6152 69 88.7447 69.0301 88.8952 69.1137L89.8664 67.3653C89.4541 67.1363 88.9933 67 88.5 67V69ZM88.8952 69.1137C89.3853 69.3859 89.9852 70.1709 90.4291 71.5466L92.3325 70.9324C91.835 69.3906 91.0234 68.008 89.8664 67.3653L88.8952 69.1137ZM86.5 66C86.7114 66 87.0209 66.11 87.3972 66.5423C87.7732 66.9743 88.1399 67.6501 88.4291 68.5466L90.3325 67.9324C89.9902 66.8717 89.5138 65.9278 88.9058 65.2293C88.2982 64.5312 87.4831 64 86.5 64V66ZM86.1883 79.6376C86.0029 78.5184 86 77.1268 86 75.5H84C84 77.0737 83.9971 78.6484 84.2153 79.9646L86.1883 79.6376ZM87.5352 81.8583C86.85 81.616 86.4144 81.0015 86.1883 79.6376L84.2153 79.9646C84.4808 81.567 85.1355 83.1311 86.8684 83.7439L87.5352 81.8583ZM90.5 85C89.6387 85 89.1859 84.7563 88.8998 84.447C88.578 84.099 88.3357 83.5266 88.1883 82.6376L86.2153 82.9646C86.3885 84.0099 86.7213 85.037 87.4315 85.8049C88.1775 86.6115 89.2134 87 90.5 87V85ZM88 78.5C88 76.7383 88.3016 75.1608 88.7727 73.9862C89.2658 72.7569 89.8514 72.1841 90.2652 72.0411L89.6123 70.1507C88.36 70.5832 87.4762 71.8461 86.9164 73.2417C86.3347 74.6921 86 76.529 86 78.5H88ZM90.2652 72.0411C90.3481 72.0125 90.4254 72 90.5 72V70C90.1926 70 89.8949 70.0531 89.6123 70.1507L90.2652 72.0411ZM88.1883 82.6376C88.0632 81.8825 88.0199 80.9876 88.0063 79.9641L86.0065 79.9908C86.0204 81.0348 86.0644 82.054 86.2153 82.9646L88.1883 82.6376ZM88.0063 79.9641C88 79.4943 88 79.0071 88 78.5H86C86 79.0044 86 79.5053 86.0065 79.9908L88.0063 79.9641ZM21.0028 75.5C21.0028 73.3165 20.5918 71.2909 19.8838 69.7738C19.2138 68.3379 18.0886 67 16.5028 67V69C16.85 69 17.4748 69.341 18.0715 70.6196C18.6302 71.8169 19.0028 73.5414 19.0028 75.5H21.0028ZM10.0028 78.5C10.0028 79.5135 9.98811 80.5358 10.0259 81.4602C10.0637 82.3846 10.1556 83.292 10.3963 84.0916C10.6404 84.9023 11.0562 85.6629 11.7798 86.2089C12.5041 86.7554 13.4214 87 14.5028 87V85C13.7189 85 13.2661 84.8249 12.9844 84.6124C12.7021 84.3993 12.476 84.0615 12.3114 83.515C12.1435 82.9573 12.0598 82.2486 12.0242 81.3785C11.9887 80.5083 12.0028 79.5575 12.0028 78.5H10.0028ZM14.5028 70C14.0095 70 13.5487 70.1363 13.1364 70.3653L14.1076 72.1137C14.2581 72.0301 14.3876 72 14.5028 72V70ZM16.5028 67C16.0095 67 15.5487 67.1363 15.1364 67.3653L16.1076 69.1137C16.2581 69.0301 16.3876 69 16.5028 69V67ZM15.1364 67.3653C13.9794 68.008 13.1678 69.3906 12.6703 70.9324L14.5736 71.5466C15.0175 70.1709 15.6175 69.3859 16.1076 69.1137L15.1364 67.3653ZM18.5028 64C17.5196 64 16.7046 64.5312 16.097 65.2293C15.489 65.9278 15.0126 66.8717 14.6703 67.9324L16.5736 68.5466C16.8629 67.6501 17.2296 66.9743 17.6056 66.5423C17.9819 66.11 18.2914 66 18.5028 66V64ZM20.7875 79.9646C21.0057 78.6484 21.0028 77.0737 21.0028 75.5H19.0028C19.0028 77.1268 18.9999 78.5184 18.8144 79.6376L20.7875 79.9646ZM18.1344 83.7439C19.8673 83.1311 20.522 81.567 20.7875 79.9646L18.8144 79.6376C18.5884 81.0015 18.1528 81.616 17.4676 81.8583L18.1344 83.7439ZM14.5028 87C15.7893 87 16.8253 86.6115 17.5713 85.8049C18.2814 85.037 18.6143 84.0099 18.7875 82.9646L16.8144 82.6376C16.6671 83.5266 16.4248 84.099 16.103 84.447C15.8169 84.7563 15.3641 85 14.5028 85V87ZM19.0028 78.5C19.0028 76.529 18.6681 74.6921 18.0864 73.2417C17.5266 71.8461 16.6428 70.5832 15.3905 70.1507L14.7376 72.0411C15.1514 72.1841 15.737 72.7569 16.2301 73.9862C16.7012 75.1608 17.0028 76.7383 17.0028 78.5H19.0028ZM15.3905 70.1507C15.1079 70.0531 14.8102 70 14.5028 70V72C14.5774 72 14.6547 72.0125 14.7376 72.0411L15.3905 70.1507ZM18.7875 82.9646C18.9384 82.054 18.9824 81.0348 18.9963 79.9908L16.9965 79.9641C16.9829 80.9876 16.9396 81.8825 16.8144 82.6376L18.7875 82.9646ZM18.9963 79.9908C19.0028 79.5053 19.0028 79.0044 19.0028 78.5H17.0028C17.0028 79.0071 17.0028 79.4943 16.9965 79.9641L18.9963 79.9908ZM23.0028 72.5C23.0028 70.3855 22.6175 68.4213 21.9519 66.9234C21.3194 65.4996 20.2797 64.1822 18.7995 64.0166L18.5771 66.0042C18.9436 66.0452 19.5612 66.4682 20.1242 67.7354C20.6542 68.9284 21.0028 70.6057 21.0028 72.5H23.0028ZM18.7995 64.0166C18.7013 64.0056 18.6024 64 18.5028 64V66C18.5277 66 18.5524 66.0014 18.5771 66.0042L18.7995 64.0166ZM19.6883 65.0104V53.5H17.6883V65.0104H19.6883ZM20.1344 80.7439C21.3004 80.3316 22 79.4689 22.4012 78.4371C22.7858 77.4476 22.9172 76.2564 22.9687 75.0424L20.9705 74.9576C20.9209 76.1276 20.7969 77.0439 20.5371 77.7124C20.2937 78.3385 19.9595 78.6844 19.4676 78.8583L20.1344 80.7439ZM22.9687 75.0424C23.003 74.2353 23.0028 73.3717 23.0028 72.5H21.0028C21.0028 73.3815 21.0026 74.2008 20.9705 74.9576L22.9687 75.0424ZM21.9696 76H48V74H21.9696V76ZM13.1364 70.3653C12.4464 70.7486 11.8922 71.389 11.4613 72.1243C11.0252 72.8685 10.6801 73.7694 10.4356 74.7605L12.3774 75.2395C12.5868 74.3905 12.8689 73.6781 13.1869 73.1355C13.51 72.5841 13.8365 72.2642 14.1076 72.1137L13.1364 70.3653ZM10.4356 74.7605C10.1571 75.8892 10.0028 77.1611 10.0028 78.5H12.0028C12.0028 77.3108 12.1403 76.2005 12.3774 75.2395L10.4356 74.7605ZM7 76H11.4065V74H7V76ZM79 76H83.0332V74H79V76ZM85.5352 78.8583C85.0432 78.6844 84.7091 78.3385 84.4657 77.7124C84.2058 77.0439 84.0819 76.1276 84.0323 74.9576L82.0341 75.0424C82.0856 76.2564 82.217 77.4476 82.6016 78.4371C83.0027 79.4689 83.7024 80.3316 84.8684 80.7439L85.5352 78.8583ZM84.0323 74.9576C84.0002 74.2008 84 73.3815 84 72.5H82C82 73.3717 81.9998 74.2353 82.0341 75.0424L84.0323 74.9576ZM84 72.5C84 70.8984 84.2493 69.4462 84.6507 68.3101C85.0637 67.1414 85.5887 66.4401 86.0377 66.1537L84.9623 64.4675C83.9655 65.1031 83.2406 66.2977 82.765 67.6438C82.2778 69.0226 82 70.704 82 72.5H84ZM86.0377 66.1537C86.2184 66.0385 86.3701 66 86.5 66V64C85.9349 64 85.4153 64.1785 84.9623 64.4675L86.0377 66.1537ZM84.5 53.5V65.3106H86.5V53.5H84.5Z" fill="black"/>
    </symbol>

    <symbol id="right" viewBox="0 0 24 24" xmlns="http://www.w3.org/2000/svg">
        <path d="M21.0459 12.7959L14.2959 19.5459C14.0846 19.7573 13.7979 19.876 13.4991 19.876C13.2002 19.876 12.9135 19.7573 12.7022 19.5459C12.4908 19.3346 12.3721 19.0479 12.3721 18.7491C12.3721 18.4502 12.4908 18.1635 12.7022 17.9522L17.5312 13.125H3.75C3.45163 13.125 3.16548 13.0065 2.9545 12.7955C2.74353 12.5845 2.625 12.2984 2.625 12C2.625 11.7016 2.74353 11.4155 2.9545 11.2045C3.16548 10.9935 3.45163 10.875 3.75 10.875H17.5312L12.7041 6.045C12.4927 5.83366 12.374 5.54701 12.374 5.24813C12.374 4.94924 12.4927 4.66259 12.7041 4.45125C12.9154 4.23991 13.2021 4.12117 13.5009 4.12117C13.7998 4.12117 14.0865 4.23991 14.2978 4.45125L21.0478 11.2013C21.1527 11.3059 21.2359 11.4303 21.2926 11.5672C21.3493 11.7041 21.3784 11.8508 21.3782 11.999C21.3781 12.1472 21.3486 12.2938 21.2916 12.4306C21.2346 12.5674 21.1511 12.6915 21.0459 12.7959Z" fill="currentColor"/>
    </symbol>
    <symbol id="account" viewBox="0 0 24 24" xmlns="http://www.w3.org/2000/svg">
        <path d="M12 4C13.0609 4 14.0783 4.42143 14.8284 5.17157C15.5786 5.92172 16 6.93913 16 8C16 9.06087 15.5786 10.0783 14.8284 10.8284C14.0783 11.5786 13.0609 12 12 12C10.9391 12 9.92172 11.5786 9.17157 10.8284C8.42143 10.0783 8 9.06087 8 8C8 6.93913 8.42143 5.92172 9.17157 5.17157C9.92172 4.42143 10.9391 4 12 4ZM12 14C16.42 14 20 15.79 20 18V20H4V18C4 15.79 7.58 14 12 14Z" fill="currentColor"/>
    </symbol>
    <symbol id="password" viewBox="0 0 24 24" xmlns="http://www.w3.org/2000/svg">
        <path d="M12 17C12.5304 17 13.0391 16.7893 13.4142 16.4142C13.7893 16.0391 14 15.5304 14 15C14 14.4696 13.7893 13.9609 13.4142 13.5858C13.0391 13.2107 12.5304 13 12 13C11.4696 13 10.9609 13.2107 10.5858 13.5858C10.2107 13.9609 10 14.4696 10 15C10 15.5304 10.2107 16.0391 10.5858 16.4142C10.9609 16.7893 11.4696 17 12 17ZM18 8C18.5304 8 19.0391 8.21071 19.4142 8.58579C19.7893 8.96086 20 9.46957 20 10V20C20 20.5304 19.7893 21.0391 19.4142 21.4142C19.0391 21.7893 18.5304 22 18 22H6C5.46957 22 4.96086 21.7893 4.58579 21.4142C4.21071 21.0391 4 20.5304 4 20V10C4 9.46957 4.21071 8.96086 4.58579 8.58579C4.96086 8.21071 5.46957 8 6 8H7V6C7 4.67392 7.52678 3.40215 8.46447 2.46447C9.40215 1.52678 10.6739 1 12 1C12.6566 1 13.3068 1.12933 13.9134 1.3806C14.52 1.63188 15.0712 2.00017 15.5355 2.46447C15.9998 2.92876 16.3681 3.47995 16.6194 4.08658C16.8707 4.69321 17 5.34339 17 6V8H18ZM12 3C11.2044 3 10.4413 3.31607 9.87868 3.87868C9.31607 4.44129 9 5.20435 9 6V8H15V6C15 5.20435 14.6839 4.44129 14.1213 3.87868C13.5587 3.31607 12.7956 3 12 3Z" fill="currentColor"/>
    </symbol>
    <symbol id="menu" viewBox="0 0 24 24" xmlns="http://www.w3.org/2000/svg">
        <path d="M20 17.5C20.3852 17.5002 20.7556 17.6486 21.0344 17.9144C21.3132 18.1802 21.479 18.5431 21.4975 18.9279C21.516 19.3127 21.3858 19.6898 21.1338 19.9812C20.8818 20.2726 20.5274 20.4558 20.144 20.493L20 20.5H4C3.61478 20.4998 3.24441 20.3514 2.96561 20.0856C2.68682 19.8198 2.52099 19.4569 2.50248 19.0721C2.48396 18.6873 2.61419 18.3102 2.86618 18.0188C3.11816 17.7274 3.47258 17.5442 3.856 17.507L4 17.5H20ZM20 10.5C20.3978 10.5 20.7794 10.658 21.0607 10.9393C21.342 11.2206 21.5 11.6022 21.5 12C21.5 12.3978 21.342 12.7794 21.0607 13.0607C20.7794 13.342 20.3978 13.5 20 13.5H4C3.60218 13.5 3.22064 13.342 2.93934 13.0607C2.65804 12.7794 2.5 12.3978 2.5 12C2.5 11.6022 2.65804 11.2206 2.93934 10.9393C3.22064 10.658 3.60218 10.5 4 10.5H20ZM20 3.5C20.3978 3.5 20.7794 3.65804 21.0607 3.93934C21.342 4.22064 21.5 4.60218 21.5 5C21.5 5.39782 21.342 5.77936 21.0607 6.06066C20.7794 6.34196 20.3978 6.5 20 6.5H4C3.60218 6.5 3.22064 6.34196 2.93934 6.06066C2.65804 5.77936 2.5 5.39782 2.5 5C2.5 4.60218 2.65804 4.22064 2.93934 3.93934C3.22064 3.65804 3.60218 3.5 4 3.5H20Z" fill="currentColor"/>
    </symbol>
    <symbol id="factory" viewBox="0 0 24 24" xmlns="http://www.w3.org/2000/svg">
        <path d="M2 22V9.975L9 7V9L14 7V10H22V22H2ZM11 18H13V14H11V18ZM7 18H9V14H7V18ZM15 18H17V14H15V18ZM21.8 8.5H17.175L18.025 2H21L21.8 8.5Z" fill="currentColor"/>
    </symbol>
    <symbol id="sparkles" viewBox="0 0 24 24" xmlns="http://www.w3.org/2000/svg">
        <path d="M10.125 22C9.92747 22.001 9.73434 21.9417 9.57143 21.83C9.40851 21.7183 9.28356 21.5596 9.21327 21.375L7.65702 17.3281C7.6255 17.2466 7.57728 17.1725 7.51546 17.1107C7.45364 17.0489 7.37958 17.0006 7.29803 16.9691L3.24999 15.4117C3.06559 15.3409 2.90699 15.2159 2.79511 15.0531C2.68323 14.8904 2.62334 14.6975 2.62334 14.5C2.62334 14.3025 2.68323 14.1096 2.79511 13.9468C2.90699 13.7841 3.06559 13.659 3.24999 13.5883L7.29686 12.032C7.37841 12.0005 7.45247 11.9523 7.51429 11.8905C7.57611 11.8286 7.62432 11.7546 7.65584 11.673L9.21327 7.62498C9.28404 7.44058 9.40906 7.28198 9.57183 7.1701C9.7346 7.05822 9.92747 6.99833 10.125 6.99833C10.3225 6.99833 10.5154 7.05822 10.6781 7.1701C10.8409 7.28198 10.9659 7.44058 11.0367 7.62498L12.593 11.6719C12.6245 11.7534 12.6727 11.8275 12.7345 11.8893C12.7963 11.9511 12.8704 11.9993 12.9519 12.0308L16.9754 13.5789C17.1673 13.65 17.3326 13.7786 17.4488 13.947C17.5651 14.1155 17.6266 14.3156 17.625 14.5203C17.622 14.7144 17.5608 14.9031 17.4494 15.062C17.338 15.2209 17.1814 15.3427 17 15.4117L12.9531 16.9679C12.8716 16.9995 12.7975 17.0477 12.7357 17.1095C12.6739 17.1713 12.6256 17.2454 12.5941 17.3269L11.0367 21.375C10.9664 21.5596 10.8415 21.7183 10.6785 21.83C10.5156 21.9417 10.3225 22.001 10.125 22ZM5.43749 8.87498C5.32169 8.87497 5.20861 8.83988 5.11314 8.77433C5.01768 8.70879 4.94432 8.61586 4.90272 8.50779L4.24413 6.79529C4.22985 6.75784 4.20782 6.72382 4.17948 6.69548C4.15114 6.66714 4.11713 6.64511 4.07967 6.63084L2.36717 5.97224C2.25912 5.93063 2.1662 5.85726 2.10067 5.7618C2.03514 5.66634 2.00006 5.55327 2.00006 5.43748C2.00006 5.32169 2.03514 5.20861 2.10067 5.11315C2.1662 5.01769 2.25912 4.94432 2.36717 4.90271L4.07967 4.24412C4.1171 4.2298 4.15109 4.20775 4.17943 4.17942C4.20776 4.15108 4.22981 4.11709 4.24413 4.07966L4.89686 2.3824C4.93367 2.28248 4.99702 2.19448 5.08009 2.12785C5.16316 2.06123 5.26281 2.01851 5.36835 2.00427C5.49504 1.98887 5.62326 2.01621 5.73266 2.08194C5.84206 2.14768 5.92638 2.24806 5.97225 2.36716L6.63085 4.07966C6.64516 4.11709 6.66721 4.15108 6.69554 4.17942C6.72388 4.20775 6.75787 4.2298 6.7953 4.24412L8.5078 4.90271C8.61585 4.94432 8.70877 5.01769 8.7743 5.11315C8.83983 5.20861 8.87491 5.32169 8.87491 5.43748C8.87491 5.55327 8.83983 5.66634 8.7743 5.7618C8.70877 5.85726 8.61585 5.93063 8.5078 5.97224L6.7953 6.63084C6.75785 6.64511 6.72383 6.66714 6.69549 6.69548C6.66715 6.72382 6.64512 6.75784 6.63085 6.79529L5.97225 8.50779C5.93065 8.61586 5.85729 8.70879 5.76183 8.77433C5.66636 8.83988 5.55328 8.87497 5.43749 8.87498ZM17.625 12C17.4987 11.9999 17.3753 11.9616 17.2712 11.8901C17.1671 11.8185 17.0871 11.7171 17.0418 11.5992L16.1496 9.28005C16.1339 9.23919 16.1098 9.20208 16.0788 9.17112C16.0479 9.14017 16.0108 9.11606 15.9699 9.10037L13.6508 8.20818C13.5329 8.16278 13.4316 8.08276 13.3602 7.97865C13.2887 7.87455 13.2505 7.75124 13.2505 7.62498C13.2505 7.49871 13.2887 7.3754 13.3602 7.2713C13.4316 7.16719 13.5329 7.08717 13.6508 7.04177L15.9699 6.14959C16.0108 6.13389 16.0479 6.10979 16.0788 6.07883C16.1098 6.04788 16.1339 6.01076 16.1496 5.9699L17.0351 3.66716C17.0756 3.55827 17.1448 3.46237 17.2353 3.38967C17.3259 3.31696 17.4345 3.27017 17.5496 3.25427C17.6879 3.23754 17.8277 3.26746 17.9471 3.33929C18.0664 3.41112 18.1583 3.52074 18.2082 3.65076L19.1004 5.9699C19.1161 6.01076 19.1402 6.04788 19.1711 6.07883C19.2021 6.10979 19.2392 6.13389 19.2801 6.14959L21.5992 7.04177C21.717 7.08717 21.8183 7.16719 21.8898 7.2713C21.9612 7.3754 21.9995 7.49871 21.9995 7.62498C21.9995 7.75124 21.9612 7.87455 21.8898 7.97865C21.8183 8.08276 21.717 8.16278 21.5992 8.20818L19.2801 9.10037C19.2392 9.11606 19.2021 9.14017 19.1711 9.17112C19.1402 9.20208 19.1161 9.23919 19.1004 9.28005L18.2082 11.5992C18.1629 11.7171 18.0829 11.8185 17.9788 11.8901C17.8747 11.9616 17.7513 11.9999 17.625 12Z" fill="currentColor"/>
    </symbol>

  </defs>
</svg>